<?xml version="1.0" encoding="iso-8859-1"?>
<!-- Generator: Adobe Illustrator 16.0.0, SVG Export Plug-In . SVG Version: 6.00 Build 0)  -->
<!DOCTYPE svg PUBLIC "-//W3C//DTD SVG 1.1//EN" "http://www.w3.org/Graphics/SVG/1.1/DTD/svg11.dtd">
<svg version="1.1" xmlns="http://www.w3.org/2000/svg" xmlns:xlink="http://www.w3.org/1999/xlink" x="0px" y="0px" width="520px"
	 height="520px" viewBox="0 0 520 520" style="enable-background:new 0 0 520 520;" xml:space="preserve">
<g id="_x37_20_x2C__Api_x2C__Javascript_x2C__Script_x2C__Programming">
	<g>
		<path style="fill:#BCE4FF;" d="M60,44c-10.201,0-18.5,8.299-18.5,18.5S49.799,81,60,81c10.201,0,18.5-8.299,18.5-18.5
			S70.201,44,60,44z"/>
		<path style="fill:#FFD5AB;" d="M150,78c-7.995,0-14.5,6.505-14.5,14.5S142.005,107,150,107c7.996,0,14.5-6.505,14.5-14.5
			S157.996,78,150,78z"/>
		<path style="fill:#545B66;" d="M433.67,127.5c-41.67,0-307.536,0-347.34,0C66.26,127.5,50,143.77,50,163.83
			c0,8.56,0,131.929,0,227.34c0,20.061,16.26,36.33,36.33,36.33c1.425,0,3.773,0,3.67,0c24.66,0,96.106,0,120,0v20h100v-20
			c27.081,0,101.383,0,123.67,0c20.07,0,36.33-16.27,36.33-36.33c0-25.793,0-203.992,0-227.34C470,143.77,453.74,127.5,433.67,127.5
			z"/>
		<rect x="85" y="367.5" style="fill:#94D4FF;" width="350" height="25"/>
		<path style="fill:#BCE4FF;" d="M85,162.5c0,5.829,0,178.697,0,205h350c0-37.844,0-202.279,0-205
			C423.146,162.5,96.813,162.5,85,162.5z"/>
		<rect x="375" y="427.5" style="fill:#D7DEED;" width="55" height="20"/>
		<rect x="90" y="427.5" style="fill:#D7DEED;" width="55" height="20"/>
		<path style="fill:#33383F;" d="M90,427.5v20h55v-20h65v20h100v-20h65v20h55v-20h3.66H460c8.279,0,15.779,3.36,21.21,8.79
			c5.43,5.43,8.79,12.93,8.79,21.21c0,16.57-13.44,30-30,30H60c-8.28,0-15.78-3.36-21.21-8.79C33.36,473.28,30,465.78,30,457.5
			c0-16.57,13.43-30,30-30h26.33H90z"/>
		<path style="fill:#AFB9D2;" d="M195,112.5v15v35v145.25c0,13.67,11.08,24.75,24.75,24.75H435h30.25c1.619,0,3.21-0.16,4.75-0.46
			c11.39-2.21,20-12.24,20-24.29V112.5H195z"/>
		<rect x="220" y="137.5" style="fill:#D7DEED;" width="245" height="170"/>
		<path style="fill:#757D8C;" d="M490,87.25v25.25H195V87.25c0-13.67,11.08-24.75,24.75-24.75h245.5
			C478.91,62.5,490,73.58,490,87.25z"/>
		<path d="M452.5,27.5c4.14,0,7.5,3.36,7.5,7.5s-3.36,7.5-7.5,7.5c-4.15,0-7.5-3.36-7.5-7.5S448.35,27.5,452.5,27.5z"/>
		<rect x="327" y="157.5" width="9.51" height="41.21"/>
		<path d="M308.189,171.43c0-0.97-0.119-1.8-0.38-2.5c-0.25-0.69-0.59-1.27-1.01-1.74c-0.431-0.46-0.91-0.8-1.45-1.01
			c-0.54-0.22-1.09-0.32-1.63-0.32h-7.431v11.26h7.781c1.119,0,2.09-0.49,2.899-1.45C307.789,174.7,308.189,173.29,308.189,171.43z
			 M316.81,166.38c0.681,1.66,1.021,3.35,1.021,5.05c0,1.82-0.32,3.56-0.961,5.22c-0.639,1.67-1.529,3.16-2.67,4.47
			c-1.14,1.32-2.529,2.36-4.149,3.14c-1.63,0.77-3.431,1.16-5.399,1.16h-8.361v13.29h-9.52V157.5h17.59c1.971,0,3.78,0.41,5.43,1.22
			c1.641,0.81,3.051,1.88,4.23,3.19C315.199,163.23,316.13,164.72,316.81,166.38z"/>
		<path d="M264.14,182.92l-4.819-14.57l-4.931,14.57H264.14z M263.619,157.5l15.031,41.21h-9.75l-3.19-9.23h-12.83l-3.13,9.23H240
			l15.03-41.21H263.619z"/>
		<path d="M237.5,32.5c4.14,0,7.5,3.36,7.5,7.5s-3.36,7.5-7.5,7.5c-4.15,0-7.5-3.36-7.5-7.5S233.35,32.5,237.5,32.5z"/>
		<path d="M127.5,37.5c4.14,0,7.5,3.36,7.5,7.5s-3.36,7.5-7.5,7.5c-4.15,0-7.5-3.36-7.5-7.5S123.35,37.5,127.5,37.5z"/>
		<path d="M110,342.5c2.76,0,5,2.24,5,5s-2.24,5-5,5c-2.77,0-5-2.24-5-5S107.23,342.5,110,342.5z"/>
		<path d="M47.5,107.5c4.14,0,7.5,3.36,7.5,7.5s-3.36,7.5-7.5,7.5c-4.15,0-7.5-3.36-7.5-7.5S43.35,107.5,47.5,107.5z"/>
		<path d="M460,492.5H60c-9.344,0-18.133-3.642-24.746-10.254C28.642,475.633,25,466.845,25,457.5c0-19.299,15.701-35,35-35h30
			c2.761,0,5,2.238,5,5s-2.239,5-5,5H60c-13.785,0-25,11.215-25,25c0,6.674,2.602,12.951,7.325,17.675
			C47.049,479.898,53.327,482.5,60,482.5h400c13.785,0,25-11.215,25-25c0-6.674-2.602-12.95-7.326-17.675
			c-4.724-4.724-11-7.325-17.674-7.325h-30c-2.762,0-5-2.238-5-5s2.238-5,5-5h30c9.344,0,18.133,3.642,24.745,10.254
			C491.358,439.367,495,448.155,495,457.5C495,476.799,479.299,492.5,460,492.5z"/>
		<path d="M310,452.5H210c-2.761,0-5-2.238-5-5v-15h-60c-2.761,0-5-2.238-5-5s2.239-5,5-5h65c2.761,0,5,2.238,5,5v15h90v-15
			c0-2.762,2.238-5,5-5h65c2.762,0,5,2.238,5,5s-2.238,5-5,5h-60v15C315,450.262,312.762,452.5,310,452.5z"/>
		<path d="M435,372.5H85c-2.761,0-5-2.238-5-5s2.239-5,5-5h350c2.762,0,5,2.238,5,5S437.762,372.5,435,372.5z"/>
		<path d="M145,452.5H90c-2.761,0-5-2.238-5-5v-20c0-2.762,2.239-5,5-5h55c2.761,0,5,2.238,5,5v20
			C150,450.262,147.761,452.5,145,452.5z M95,442.5h45v-10H95V442.5z"/>
		<path d="M430,452.5h-55c-2.762,0-5-2.238-5-5v-20c0-2.762,2.238-5,5-5h55c2.762,0,5,2.238,5,5v20
			C435,450.262,432.762,452.5,430,452.5z M380,442.5h45v-10h-45V442.5z"/>
		<path d="M435,397.5H85c-2.761,0-5-2.238-5-5v-230c0-2.761,2.239-5,5-5h110c2.761,0,5,2.239,5,5s-2.239,5-5,5H90v220h340v-55
			c0-2.762,2.238-5,5-5s5,2.238,5,5v60C440,395.262,437.762,397.5,435,397.5z"/>
		<path d="M433.66,432.5c-2.762,0-5-2.238-5-5s2.238-5,5-5c17.281,0,31.34-14.055,31.34-31.33v-59.13c0-2.762,2.238-5,5-5
			s5,2.238,5,5v59.13C475,413.959,456.455,432.5,433.66,432.5z"/>
		<path d="M86.33,432.5C63.541,432.5,45,413.959,45,391.17V163.83c0-22.79,18.541-41.33,41.33-41.33H195c2.761,0,5,2.239,5,5
			s-2.239,5-5,5H86.33C69.054,132.5,55,146.555,55,163.83v227.34c0,17.275,14.054,31.33,31.33,31.33c2.761,0,5,2.238,5,5
			S89.091,432.5,86.33,432.5z"/>
		<path d="M465.25,337.5h-245.5c-16.404,0-29.75-13.346-29.75-29.75V87.25c0-16.404,13.346-29.75,29.75-29.75h245.5
			c16.404,0,29.75,13.346,29.75,29.75v220.5c0,14.215-10.113,26.495-24.047,29.198C469.074,337.314,467.154,337.5,465.25,337.5z
			 M219.75,67.5c-10.89,0-19.75,8.86-19.75,19.75v220.5c0,10.891,8.86,19.75,19.75,19.75h245.5c1.264,0,2.541-0.124,3.795-0.368
			c9.246-1.794,15.955-9.945,15.955-19.382V87.25c0-10.89-8.859-19.75-19.75-19.75H219.75z"/>
		<path d="M255,232.5h-15c-2.761,0-5-2.239-5-5s2.239-5,5-5h15c2.762,0,5,2.239,5,5S257.762,232.5,255,232.5z"/>
		<path d="M310,232.5h-40c-2.762,0-5-2.239-5-5s2.238-5,5-5h40c2.762,0,5,2.239,5,5S312.762,232.5,310,232.5z"/>
		<path d="M260,252.5h-20c-2.761,0-5-2.239-5-5s2.239-5,5-5h20c2.762,0,5,2.239,5,5S262.762,252.5,260,252.5z"/>
		<path d="M320,252.5h-45c-2.762,0-5-2.239-5-5s2.238-5,5-5h45c2.762,0,5,2.239,5,5S322.762,252.5,320,252.5z"/>
		<path d="M265,272.5h-25c-2.761,0-5-2.238-5-5s2.239-5,5-5h25c2.762,0,5,2.238,5,5S267.762,272.5,265,272.5z"/>
		<path d="M305,272.5h-25c-2.762,0-5-2.238-5-5s2.238-5,5-5h25c2.762,0,5,2.238,5,5S307.762,272.5,305,272.5z"/>
		<path d="M360,252.5h-25c-2.762,0-5-2.239-5-5s2.238-5,5-5h25c2.762,0,5,2.239,5,5S362.762,252.5,360,252.5z"/>
		<path d="M290,292.5h-50c-2.761,0-5-2.238-5-5s2.239-5,5-5h50c2.762,0,5,2.238,5,5S292.762,292.5,290,292.5z"/>
		<path d="M315,292.5h-10c-2.762,0-5-2.238-5-5s2.238-5,5-5h10c2.762,0,5,2.238,5,5S317.762,292.5,315,292.5z"/>
		<path d="M330,272.5h-10c-2.762,0-5-2.238-5-5s2.238-5,5-5h10c2.762,0,5,2.238,5,5S332.762,272.5,330,272.5z"/>
		<path d="M490,117.5H195c-2.761,0-5-2.239-5-5s2.239-5,5-5h295c2.762,0,5,2.239,5,5S492.762,117.5,490,117.5z"/>
		<path d="M465,312.5H220c-2.761,0-5-2.238-5-5v-170c0-2.761,2.239-5,5-5h245c2.762,0,5,2.239,5,5v170
			C470,310.262,467.762,312.5,465,312.5z M225,302.5h235v-160H225V302.5z"/>
		<path d="M60,87.5c-13.785,0-25-11.215-25-25s11.215-25,25-25s25,11.215,25,25S73.785,87.5,60,87.5z M60,47.5
			c-8.271,0-15,6.729-15,15s6.729,15,15,15s15-6.729,15-15S68.271,47.5,60,47.5z"/>
		<path d="M150,112.5c-11.028,0-20-8.972-20-20s8.972-20,20-20s20,8.972,20,20S161.028,112.5,150,112.5z M150,82.5
			c-5.514,0-10,4.486-10,10s4.486,10,10,10s10-4.486,10-10S155.514,82.5,150,82.5z"/>
		<path d="M110,337.5c-2.761,0-5-2.238-5-5v-145c0-2.761,2.239-5,5-5h60c2.761,0,5,2.239,5,5s-2.239,5-5,5h-55v140
			C115,335.262,112.761,337.5,110,337.5z"/>
	</g>
</g>
<g id="Layer_1">
</g>
</svg>
