<?xml version="1.0" encoding="UTF-8"?>
<!DOCTYPE svg PUBLIC "-//W3C//DTD SVG 1.1//EN" "http://www.w3.org/Graphics/SVG/1.1/DTD/svg11.dtd">
<!-- Creator: CorelDRAW -->
<svg xmlns="http://www.w3.org/2000/svg" xml:space="preserve" width="512px" height="512px" version="1.1" style="shape-rendering:geometricPrecision; text-rendering:geometricPrecision; image-rendering:optimizeQuality; fill-rule:evenodd; clip-rule:evenodd"
viewBox="0 0 512 512"
 xmlns:xlink="http://www.w3.org/1999/xlink">
 <defs>
  <style type="text/css">
   <![CDATA[
    .fil1 {fill:#46A1E5}
    .fil0 {fill:#55ACEE}
    .fil2 {fill:#FF4141}
   ]]>
  </style>
 </defs>
 <g id="Layer_x0020_1">
  <metadata id="CorelCorpID_0Corel-Layer"/>
  <g id="_308480168">
   <g>
    <path class="fil0" d="M321 510l-130 0c-13,0 -23,-10 -23,-22l0 -53c-8,-4 -15,-8 -23,-13l-45 26c-6,3 -12,4 -18,2 -5,-1 -10,-5 -13,-10l-66 -114c-3,-5 -4,-11 -2,-17 2,-6 5,-10 10,-13l46 -27c0,-4 0,-8 0,-13 0,-5 0,-9 0,-13l-46 -26c-10,-7 -14,-21 -8,-31l66 -114c3,-5 7,-9 13,-10 6,-2 12,-1 18,2l45 26c7,-5 15,-9 23,-13l0 -53c0,-12 10,-22 22,-22l131 0c13,0 23,10 23,22l0 53c8,4 16,8 23,13l45 -26c5,-3 12,-4 17,-2 6,1 11,5 14,10l66 114c6,10 2,24 -9,31l-45 26c0,4 1,9 1,13 0,4 -1,9 -1,13l46 27c5,2 8,7 10,13 2,6 1,12 -2,17l-66 114c-6,11 -20,14 -30,8l-46 -26c-7,5 -15,9 -23,13l0 53c0,12 -10,22 -23,22zm-65 -139c-63,0 -115,-52 -115,-115 0,-63 52,-115 115,-115 63,0 115,52 115,115 0,63 -52,115 -115,115z"/>
    <path class="fil1" d="M256 411c-85,0 -155,-70 -155,-155 0,-85 70,-155 155,-155 85,0 155,70 155,155 0,85 -70,155 -155,155zm0 -40c-63,0 -115,-52 -115,-115 0,-63 52,-115 115,-115 63,0 115,52 115,115 0,63 -52,115 -115,115z"/>
   </g>
   <path class="fil2" d="M267 299c-3,0 -6,-2 -6,-5l0 -31c0,-3 3,-5 6,-5l19 0c9,0 15,-2 18,-5 4,-4 5,-8 5,-13 0,-3 -1,-5 -2,-8 -1,-2 -2,-4 -4,-5 0,0 0,0 0,0 -2,-1 -4,-2 -7,-3 -2,0 -5,0 -11,0l-18 0c-3,0 -6,-3 -6,-6 0,-3 3,-5 6,-5l18 0c5,0 10,0 13,1 4,0 8,2 11,4 4,2 6,5 8,9 2,4 3,9 3,13 0,8 -3,15 -8,20 -5,6 -14,9 -26,9l-14 0 0 25c0,3 -2,5 -5,5z"/>
   <path class="fil2" d="M178 299c0,0 -1,0 -2,0 -3,-1 -4,-4 -3,-7l29 -76c1,-2 3,-3 5,-3l11 0c2,0 4,1 5,3l31 76c1,2 0,6 -3,7 -3,1 -6,0 -7,-3l-30 -72 -3 0 -28 72c0,2 -3,3 -5,3z"/>
   <path class="fil2" d="M267 269c-3,0 -6,-3 -6,-6l0 -45c0,-3 3,-5 6,-5 3,0 5,2 5,5l0 45c0,3 -2,6 -5,6z"/>
   <path class="fil2" d="M334 299c-3,0 -6,-2 -6,-5l0 -76c0,-3 3,-5 6,-5 3,0 5,2 5,5l0 76c0,3 -2,5 -5,5z"/>
   <path class="fil2" d="M233 262l-40 0c-3,0 -6,-3 -6,-6 0,-3 3,-5 6,-5l40 0c3,0 6,2 6,5 0,3 -3,6 -6,6z"/>
  </g>
 </g>
</svg>
