<?xml version="1.0" encoding="UTF-8"?>
<!DOCTYPE svg PUBLIC "-//W3C//DTD SVG 1.1//EN" "http://www.w3.org/Graphics/SVG/1.1/DTD/svg11.dtd">
<!-- Creator: CorelDRAW -->
<svg xmlns="http://www.w3.org/2000/svg" xml:space="preserve" width="850px" height="850px" version="1.1" style="shape-rendering:geometricPrecision; text-rendering:geometricPrecision; image-rendering:optimizeQuality; fill-rule:evenodd; clip-rule:evenodd"
viewBox="0 0 850 850"
 xmlns:xlink="http://www.w3.org/1999/xlink"
 xmlns:xodm="http://www.corel.com/coreldraw/odm/2003">
 <defs>
  <style type="text/css">
   <![CDATA[
    .fil1 {fill:#FEFEFE}
    .fil0 {fill:url(#id0)}
   ]]>
  </style>
  <linearGradient id="id0" gradientUnits="userSpaceOnUse" x1="425" y1="850" x2="425" y2="0">
   <stop offset="0" style="stop-opacity:1; stop-color:#1AA8DC"/>
   <stop offset="0.490196" style="stop-opacity:1; stop-color:#AE3B89"/>
   <stop offset="1" style="stop-opacity:1; stop-color:#F26270"/>
  </linearGradient>
 </defs>
 <g id="Layer_x0020_1">
  <metadata id="CorelCorpID_0Corel-Layer"/>
  <circle class="fil0" cx="425" cy="425" r="425"/>
  <path class="fil1" d="M674 574.05l-498 0c-3.9,0 -7,-3.1 -7,-7l0 -361c0,-3.9 3.1,-7 7,-7l498 0c3.9,0 7,3.1 7,7l0 361c0,3.9 -3.1,7 -7,7zm-77 -201l0 -66 -10 0c-3.9,0 -7,-3.1 -7,-7 0,-3.9 3.1,-7 7,-7l17 0 17 0c3.9,0 7,3.1 7,7 0,3.9 -3.1,7 -7,7l-10 0 0 66 10 0c3.9,0 7,3.1 7,7 0,3.9 -3.1,7 -7,7l-17 0 -17 0c-3.9,0 -7,-3.1 -7,-7 0,-3.9 3.1,-7 7,-7l10 0zm-47 -33l-23 0 0 40c0,3.9 -3.1,7 -7,7 -3.9,0 -7,-3.1 -7,-7l0 -47 0 -33c0,-3.9 3.1,-7 7,-7l30 0c12.9,0 23,10.1 23,23 0,13.2 -10.3,24 -23,24zm-23 -14l23 0c4.9,0 9,-4.6 9,-10 0,-5.1 -3.9,-9 -9,-9l-23 0 0 19zm-72 61c-0.6,0 -1.2,-0.1 -1.8,-0.2 -3.7,-1 -6,-4.8 -5,-8.5l7.81 -29.77c0.06,-0.94 0.3,-1.82 0.69,-2.62l12.5 -47.61c0.76,-2.81 3.14,-4.82 5.87,-5.18l0.05 0 0.12 -0.02 0.05 0c3.35,-0.35 6.61,1.76 7.51,5.1l22 80c1,3.7 -1.2,7.6 -4.9,8.6 -0.7,0.1 -1.3,0.2 -1.9,0.2 -3.1,0 -5.9,-2 -6.7,-5.1l-7.13 -25.9 -15.7 0 -6.77 25.8c-0.8,3.1 -3.6,5.2 -6.7,5.2zm25.33 -45l-4.19 -15.21 -3.99 15.21 8.18 0zm-12.9 121.24c-0.11,-0.11 -0.22,-0.22 -0.33,-0.34 -2.7,-2.7 -2.7,-7.2 0,-9.9l29 -29c2.7,-2.7 7.2,-2.7 9.9,0 2.7,2.7 2.7,7.2 0,9.9l-24.05 24.05 24.05 24.05c2.7,2.7 2.7,7.2 0,9.9 -1.4,1.4 -3.2,2.1 -5,2.1 -1.8,0 -3.6,-0.7 -4.9,-2.1l-28.67 -28.66zm125.72 -5.29l-24.05 -24.05c-2.7,-2.7 -2.7,-7.2 0,-9.9 2.7,-2.7 7.2,-2.7 9.9,0l29 29c2.7,2.7 2.7,7.2 0,9.9l-29 29c-1.4,1.4 -3.2,2.1 -5,2.1 -1.8,0 -3.6,-0.7 -4.9,-2.1 -2.7,-2.7 -2.7,-7.2 0,-9.9l24.05 -24.05zm-68.15 54.05c-0.6,0 -1.2,-0.1 -1.8,-0.2 -3.7,-1 -6,-4.8 -5,-8.6l25 -94c1,-3.7 4.8,-6 8.6,-5 3.7,1 6,4.8 5,8.6l-25 94c-0.9,3.1 -3.7,5.2 -6.8,5.2zm117 40l-435 0c-3.9,0 -7,-3.1 -7,-7l0 -316c0,-3.9 3.1,-7 7,-7l435 0c3.9,0 7,3.1 7,7l0 316c0,3.9 -3.1,7 -7,7zm-428 -14l421 0 0 -302 -421 0 0 302zm113 -97c-16.3,0 -31.5,-6.3 -42.7,-17.7 -11.2,-11.3 -17.3,-26.3 -17.3,-42.3 0,-16 6.1,-31 17.3,-42.3 11.3,-11.4 26.4,-17.7 42.7,-17.7 32.5,0 59,26.9 59,60 0,33.1 -26.5,60 -59,60zm0 -106c-25.8,0 -46,20.2 -46,46 0,25.8 20.2,46 46,46 24.8,0 45,-20.6 45,-46 0,-25.4 -20.2,-46 -45,-46zm18 147l-37 0c-3.9,0 -7,-3.1 -7,-7l0 -9.8c-5.5,-1.8 -11.1,-4.4 -16,-7.3l-7 7c-2.7,2.7 -7.1,2.7 -9.8,0.1l-26 -25c-1.4,-1.3 -2.1,-3.1 -2.1,-5 0,-1.9 0.7,-3.7 2,-5l7.4 -7.4c-2.6,-5.3 -5,-10.7 -6.9,-16.6l-9.6 0c-3.9,0 -7,-3.1 -7,-7l0 -36c0,-3.9 3.1,-7 7,-7l9.6 0c1.8,-5.9 4.3,-11.3 6.9,-16.6l-7.4 -7.4c-1.3,-1.3 -2.1,-3.1 -2,-5 0,-1.9 0.8,-3.7 2.1,-5l26 -25c2.7,-2.6 7.1,-2.6 9.8,0.1l7.1 7.1c4.5,-2.5 9.8,-4.6 16,-6.5l0 -10.7c0,-3.9 3.1,-7 7,-7l37 0c3.9,0 7,3.1 7,7l0 10.7c6.2,1.8 11.5,4 16,6.5l7.1 -7.1c2.7,-2.7 7.1,-2.7 9.8,-0.1l26 25c1.4,1.3 2.1,3.1 2.1,5 0,1.9 -0.7,3.7 -2,5l-7.4 7.4c2.6,5.3 5,10.7 6.9,16.6l10.4 0c3.9,0 7,3.1 7,7l0 36c0,3.9 -3.1,7 -7,7l-10.6 0c-1.8,5.9 -4.3,11.3 -6.9,16.6l7.4 7.4c1.3,1.3 2.1,3.1 2,5 0,1.9 -0.8,3.7 -2.1,5l-26 25c-2.7,2.6 -7.1,2.6 -9.8,-0.1l-7 -7c-5,2.9 -10.5,5.5 -16,7.3l0 9.8c0,3.9 -3.1,7 -7,7zm-30 -14l23 0 0 -8c0,-3.2 2.2,-6 5.3,-6.8 7.5,-1.9 15.6,-5.6 21.6,-9.9 2.8,-2 6.6,-1.7 9,0.7l6.1 6.1 15.9 -15.3 -6 -6c-2.1,-2.1 -2.7,-5.4 -1.3,-8.1 3.9,-7.8 7.6,-15.2 9.4,-23.4 0.7,-3.2 3.6,-5.5 6.8,-5.5l9 0 0 -22 -9 0c-3.3,0 -6.1,-2.3 -6.8,-5.5 -1.8,-8.2 -5.5,-15.6 -9.4,-23.4 -1.3,-2.7 -0.8,-5.9 1.3,-8.1l6 -6 -15.9 -15.3 -6.1 6.1c-2.4,2.4 -6.2,2.7 -9,0.7 -5.1,-3.6 -12.1,-6.5 -21.6,-8.9 -3.1,-0.8 -5.3,-3.6 -5.3,-6.8l0 -9 -23 0 0 9c0,3.2 -2.2,6 -5.3,6.8 -9.5,2.4 -16.6,5.3 -21.6,8.9 -2.8,2 -6.6,1.7 -9,-0.7l-6.1 -6.1 -16 15.6 6 6c2.1,2.1 2.7,5.4 1.3,8.1 -3.9,7.8 -7.6,15.2 -9.4,23.4 -0.7,3.2 -3.6,5.5 -6.8,5.5l-8 0 0 22 8 0c3.3,0 6.1,2.3 6.8,5.5 1.8,8.2 5.5,15.6 9.4,23.4 1.3,2.7 0.8,5.9 -1.3,8.1l-6 6 15.9 15.3 6.1 -6.1c2.4,-2.4 6.2,-2.7 9,-0.7 6.1,4.3 14.2,8 21.6,9.9 3.1,0.8 5.3,3.6 5.3,6.8l0 7.7 0.1 0z"/>
  <path class="fil1" d="M458 611.45l-66 0c-3.9,0 -7,-3.1 -7,-7l0 -37.4c0,-3.9 3.1,-7 7,-7l66 0c3.9,0 7,3.1 7,7l0 37.4c0,3.8 -3.2,7 -7,7z"/>
  <path class="fil1" d="M527.2 650.95l-204.2 0c-3.9,0 -7,-3.1 -7,-7l0 -39.9c0,-3.9 3.1,-7 7,-7l204.2 0c3.9,0 7,3.1 7,7l0 39.9c0,3.9 -3.1,7 -7,7z"/>
 </g>
</svg>
