<?xml version="1.0" encoding="UTF-8"?>
<!DOCTYPE svg PUBLIC "-//W3C//DTD SVG 1.1//EN" "http://www.w3.org/Graphics/SVG/1.1/DTD/svg11.dtd">
<!-- Creator: CorelDRAW -->
<svg xmlns="http://www.w3.org/2000/svg" xml:space="preserve" width="512px" height="512px" version="1.1" style="shape-rendering:geometricPrecision; text-rendering:geometricPrecision; image-rendering:optimizeQuality; fill-rule:evenodd; clip-rule:evenodd"
viewBox="0 0 512 512"
 xmlns:xlink="http://www.w3.org/1999/xlink">
 <defs>
  <style type="text/css">
   <![CDATA[
    .fil0 {fill:black}
   ]]>
  </style>
 </defs>
 <g id="Layer_x0020_1">
  <metadata id="CorelCorpID_0Corel-Layer"/>
  <path class="fil0" d="M470 263l0 0 0 0 0 0 0 0 0 0 0 0 0 0 0 0 0 0 0 0 0 0 0 0 0 0 0 0 -1 0 0 0c-2,0 -4,-1 -5,-3l-75 -73c-3,-3 -3,-7 0,-10 3,-3 8,-3 11,0l62 61c-9,-106 -98,-189 -206,-189 -93,0 -175,62 -200,151 -1,4 -5,6 -9,5 -4,-1 -6,-5 -5,-9 27,-95 115,-162 214,-162 110,0 202,82 219,188l23 -68c1,-4 5,-6 9,-5 4,1 6,5 5,9l-35 100 0 0 0 1 0 0c0,0 0,1 -1,1l0 0 0 0 0 0c-1,2 -3,3 -5,3l0 0c0,0 0,0 0,0l0 0 -1 0 0 0 0 0z"/>
  <path class="fil0" d="M256 478c-110,0 -202,-81 -219,-186l-22 67c-2,3 -5,5 -8,5 0,0 -1,0 -2,0 -4,-2 -6,-6 -5,-9l34 -100c1,-4 4,-6 8,-6 3,0 6,2 7,5l74 71c3,3 3,8 0,10 -3,3 -8,3 -11,0l-62 -61c9,106 98,189 206,189 80,0 154,-47 188,-120 2,-4 6,-5 10,-3 4,1 5,5 3,9 -36,78 -115,129 -201,129z"/>
  <path class="fil0" d="M278 397l-45 0c-3,0 -6,-2 -7,-6l-6 -41c-2,0 -4,-1 -6,-2l-32 24c-3,2 -7,2 -10,-1l-31 -31c-3,-3 -3,-7 -1,-10l24 -32c-1,-2 -2,-5 -3,-6l-40 -6c-4,0 -6,-4 -6,-7l0 -45c0,-4 2,-7 6,-8l40 -5c1,-2 2,-5 3,-7l-24 -32c-2,-3 -2,-7 1,-10l31 -31c3,-3 7,-3 10,-1l32 24c2,0 4,-1 6,-2l6 -40c0,-4 4,-7 7,-7l45 0c4,0 6,3 7,7l6 40c2,1 4,2 6,2l33 -24c3,-2 7,-2 9,1l32 31c3,3 3,7 1,10l-25 33c1,2 2,4 3,6l40 6c4,0 6,4 6,7l0 45c0,4 -2,7 -6,7l-40 6c-1,2 -2,4 -3,6l25 32c2,3 2,7 -1,10l-32 31c-2,3 -6,3 -9,1l-33 -24c-2,1 -4,2 -6,2l-6 41c0,4 -3,6 -7,6zm-22 -83c-32,0 -58,-26 -58,-58 0,-31 26,-57 58,-57 31,0 57,26 57,57 1,32 -25,58 -57,58zm0 -101c-24,0 -43,19 -43,43 0,24 19,43 43,43 24,0 43,-19 43,-43 0,-24 -19,-43 -43,-43z"/>
 </g>
</svg>
