<svg width="134" height="134" xmlns="http://www.w3.org/2000/svg" xmlns:xlink="http://www.w3.org/1999/xlink" xml:space="preserve" overflow="hidden"><g transform="translate(-592 -260)"><path d="M693.198 348.077C690.965 345.844 687.615 344.727 684.544 345.425L678.263 339.283C683.846 332.025 686.917 323.092 686.917 313.879 687.056 290.569 668.213 271.725 645.042 271.585 621.871 271.446 603.027 290.29 602.888 313.46 602.748 336.631 621.592 355.475 644.763 355.615 653.975 355.615 663.048 352.544 670.446 346.96L676.588 353.102C676.029 356.312 677.006 359.523 679.24 361.896L696.688 379.344C700.456 383.112 706.737 383.112 710.506 379.344 714.275 375.575 714.275 369.294 710.506 365.525L693.198 348.077ZM645.042 347.24C626.477 347.24 611.542 332.304 611.542 313.74 611.542 295.175 626.477 280.24 645.042 280.24 663.606 280.24 678.542 295.175 678.542 313.74 678.542 332.165 663.467 347.24 645.042 347.24Z"/><path d="M675.052 311.646 667.096 311.646C666.398 311.785 665.7 312.204 665.281 312.763L659.977 318.485 655.51 302.992C655.092 301.735 653.696 300.898 652.44 301.317 651.742 301.596 651.044 302.015 650.765 302.852L642.39 325.046 636.667 294.337C636.388 292.942 635.131 292.104 633.875 292.383 633.037 292.523 632.34 293.221 631.921 294.058L625.919 311.646 615.031 311.646 615.031 317.229 627.733 317.229C628.85 317.09 629.827 316.252 630.106 315.135L633.596 304.527 639.179 334.538C639.319 335.654 640.296 336.492 641.412 336.492L641.692 336.492C642.669 336.492 643.646 335.933 644.065 334.956L652.998 311.506 656.627 324.069C657.046 325.325 658.302 326.163 659.698 325.744 660.117 325.604 660.535 325.325 660.815 325.046L668.352 317.229 675.192 317.229 675.192 311.646Z"/></g></svg>