<?xml version="1.0" encoding="UTF-8"?>
<!DOCTYPE svg PUBLIC "-//W3C//DTD SVG 1.1//EN" "http://www.w3.org/Graphics/SVG/1.1/DTD/svg11.dtd">
<!-- Creator: CorelDRAW -->
<svg xmlns="http://www.w3.org/2000/svg" xml:space="preserve" width="7.11111in" height="7.11111in" version="1.1" style="shape-rendering:geometricPrecision; text-rendering:geometricPrecision; image-rendering:optimizeQuality; fill-rule:evenodd; clip-rule:evenodd"
viewBox="0 0 7111 7111"
 xmlns:xlink="http://www.w3.org/1999/xlink">
 <defs>
  <style type="text/css">
   <![CDATA[
    .fil0 {fill:black}
   ]]>
  </style>
 </defs>
 <g id="Layer_x0020_1">
  <metadata id="CorelCorpID_0Corel-Layer"/>
  <path class="fil0" d="M1252 2485c-240,0 -436,-195 -436,-436 0,-240 196,-436 436,-436 284,0 491,268 423,541l902 521c201,-194 530,-151 675,89l661 -177c5,-304 313,-508 593,-399l1003 -1317c-212,-285 -9,-696 350,-696 240,0 436,196 436,436 0,308 -311,517 -594,406l-1003 1318c213,285 10,696 -349,696 -159,0 -297,-85 -374,-211l-660 177c-5,236 -198,428 -436,428 -284,0 -491,-268 -423,-541l-902 -521c-78,76 -185,122 -302,122zm5736 4451l-6865 0c-67,0 -121,-54 -121,-121l0 -535c0,-67 54,-121 121,-121l607 0 0 -3023c0,-67 54,-121 121,-121l719 0c67,0 121,54 121,121l0 3023 603 0 0 -1637c0,-67 54,-121 120,-121l719 0c67,0 121,54 121,121l0 1637 603 0 0 -2377c0,-67 54,-121 121,-121l719 0c66,0 120,54 120,121l0 2377 604 0 0 -4399c0,-67 54,-121 120,-121l719 0c67,0 121,54 121,121l0 4399 607 0c67,0 121,54 121,121l0 535c0,67 -54,121 -121,121zm-6016 -777l477 0 0 -2903 -477 0 0 2903zm1563 0l478 0 0 -1516 -478 0 0 1516zm3127 0l477 0 0 -4278 -477 0 0 4278zm-5418 536l6623 0 0 -295 -607 0 -719 0 -844 0 -719 0 -845 0 -719 0 -1 0 -842 0 -1 0 -719 0 -607 0 0 295zm3855 -536l477 0 0 -2256 -477 0 0 2256zm1760 -5743c-107,0 -195,88 -195,195 0,107 88,195 195,195 107,0 195,-88 195,-195 0,-107 -88,-195 -195,-195zm-1510 1984c-108,0 -195,88 -195,195 0,107 87,194 195,194 107,0 194,-87 194,-194 0,-107 -87,-195 -194,-195zm-1470 394c-107,0 -195,87 -195,195 0,107 88,194 195,194 107,0 195,-87 195,-194 0,-108 -88,-195 -195,-195zm-1627 -939c-107,0 -195,87 -195,194 0,108 88,195 195,195 107,0 195,-87 195,-195 0,-107 -88,-194 -195,-194z"/>
 </g>
</svg>
