<?xml version="1.0" encoding="UTF-8"?>
<!DOCTYPE svg PUBLIC "-//W3C//DTD SVG 1.1//EN" "http://www.w3.org/Graphics/SVG/1.1/DTD/svg11.dtd">
<!-- Creator: CorelDRAW -->
<svg xmlns="http://www.w3.org/2000/svg" xml:space="preserve" width="11.1111in" height="11.1111in" version="1.1" style="shape-rendering:geometricPrecision; text-rendering:geometricPrecision; image-rendering:optimizeQuality; fill-rule:evenodd; clip-rule:evenodd"
viewBox="0 0 11111 11111"
 xmlns:xlink="http://www.w3.org/1999/xlink">
 <defs>
  <style type="text/css">
   <![CDATA[
    .fil4 {fill:#00CCFF}
    .fil1 {fill:#23B574}
    .fil5 {fill:#407093}
    .fil2 {fill:#E84242}
    .fil0 {fill:#EBEBEB}
    .fil3 {fill:#FFBF17}
   ]]>
  </style>
 </defs>
 <path class="fil0" d="M5556 0c4013,0 5555,1542 5555,5556 0,4013 -1542,5555 -5555,5555 -4014,0 -5556,-1542 -5556,-5555 0,-4014 1542,-5556 5556,-5556z"/>
 <g id="Layer_x0020_1">
  <metadata id="CorelCorpID_0Corel-Layer"/>
  <g id="_522285856">
   <path class="fil1" d="M3570 8400l-719 0c-67,0 -121,-54 -121,-120l0 -3144c0,-67 54,-121 121,-121l719 0c67,0 121,54 121,121l0 3144c0,66 -54,120 -121,120z"/>
   <path class="fil2" d="M5133 8400l-719 0c-66,0 -120,-54 -120,-120l0 -1758c0,-67 54,-121 120,-121l719 0c67,0 121,54 121,121l0 1758c0,66 -54,120 -121,120z"/>
   <path class="fil3" d="M6697 8400l-719 0c-67,0 -121,-54 -121,-120l0 -2498c0,-67 54,-121 121,-121l719 0c66,0 120,54 120,121l0 2498c0,66 -54,120 -120,120z"/>
   <path class="fil4" d="M8260 8400l-719 0c-66,0 -120,-54 -120,-120l0 -4520c0,-67 54,-121 120,-121l719 0c67,0 121,54 121,121l0 4520c0,66 -54,120 -121,120z"/>
   <path class="fil5" d="M5184 5028c-54,0 -103,-36 -117,-90 -17,-64 21,-130 85,-148l861 -230c64,-17 130,21 148,85 17,65 -21,131 -86,148l-860 231c-11,2 -21,4 -31,4zm-578 -76c-21,0 -41,-6 -60,-17l-1081 -623c-58,-34 -78,-108 -44,-165 33,-58 107,-78 165,-44l1080 623c58,34 78,108 44,165 -22,39 -63,61 -104,61zm1934 -487c-26,0 -52,-8 -73,-25 -54,-40 -64,-116 -23,-169l1128 -1482c40,-53 116,-64 169,-23 53,40 63,116 23,169l-1128 1482c-24,31 -60,48 -96,48z"/>
   <path class="fil4" d="M7859 3047c-240,0 -436,-196 -436,-436 0,-240 196,-436 436,-436 240,0 436,196 436,436 0,240 -196,436 -436,436z"/>
   <path class="fil3" d="M6349 5031c-241,0 -436,-196 -436,-436 0,-241 195,-436 436,-436 240,0 436,195 436,436 0,240 -196,436 -436,436z"/>
   <path class="fil2" d="M4879 5425c-240,0 -436,-196 -436,-436 0,-241 196,-436 436,-436 240,0 436,195 436,436 0,240 -196,436 -436,436z"/>
   <path class="fil1" d="M3252 4485c-240,0 -436,-195 -436,-436 0,-240 196,-436 436,-436 241,0 436,196 436,436 0,241 -196,436 -436,436z"/>
   <path class="fil5" d="M8988 8936l-6865 0c-67,0 -121,-54 -121,-121l0 -535c0,-67 54,-121 121,-121l6865 0c67,0 121,54 121,121l0 535c0,67 -54,121 -121,121z"/>
  </g>
 </g>
</svg>
