<?xml version="1.0" encoding="UTF-8"?>
<!DOCTYPE svg PUBLIC "-//W3C//DTD SVG 1.1//EN" "http://www.w3.org/Graphics/SVG/1.1/DTD/svg11.dtd">
<!-- Creator: CorelDRAW -->
<svg xmlns="http://www.w3.org/2000/svg" xml:space="preserve" width="512px" height="512px" version="1.1" style="shape-rendering:geometricPrecision; text-rendering:geometricPrecision; image-rendering:optimizeQuality; fill-rule:evenodd; clip-rule:evenodd"
viewBox="0 0 512 512"
 xmlns:xlink="http://www.w3.org/1999/xlink">
 <defs>
  <style type="text/css">
   <![CDATA[
    .fil0 {fill:#4D4D4D}
    .fil1 {fill:#99A4AC}
    .fil2 {fill:#F1F1F1}
    .fil3 {fill:#FF700D}
    .fil4 {fill:#FFE600}
   ]]>
  </style>
 </defs>
 <g id="Layer_x0020_1">
  <metadata id="CorelCorpID_0Corel-Layer"/>
  <path class="fil0" d="M474 404l-157 0 17 44 49 0c4,0 8,4 8,8 0,4 -4,7 -8,7l-254 0c-4,0 -7,-3 -7,-7 0,-4 3,-8 7,-8l49 0 18 -44 -157 0c-22,0 -39,-17 -39,-38 0,-93 0,-186 0,-279 0,-21 17,-38 39,-38l435 0c21,0 38,17 38,38l0 279c0,21 -17,38 -38,38zm-11 -265l-171 0c-5,0 -8,-3 -8,-8 0,-4 3,-7 8,-7l171 0c4,0 7,3 7,7 0,5 -3,8 -7,8zm0 -33l-171 0c-5,0 -8,-3 -8,-7 0,-4 3,-7 8,-7l171 0c4,0 7,3 7,7 0,4 -3,7 -7,7zm-8 188l0 -109 -28 0 0 109 28 0zm-43 0l0 -116c0,-5 4,-8 8,-8l43 0c4,0 7,3 7,8l0 116 9 0c4,0 7,4 7,8 0,4 -4,7 -7,7 -68,0 -136,0 -204,0 -4,0 -7,-3 -7,-7 0,-4 3,-8 7,-8l8 0 0 -61c0,-4 3,-7 7,-7l44 0c4,0 7,3 7,7l0 61 7 0 0 -81c0,-4 3,-8 7,-8l43 0c5,0 8,4 8,8l0 81 6 0zm-21 0l0 -74 -28 0 0 74 28 0zm-65 0l0 -54 -28 0 0 54 28 0zm-89 -33c-1,0 -2,0 -3,-1l-75 -44c-4,-3 -5,-8 -1,-12l62 -61c3,-2 8,-2 11,0 10,11 18,23 22,37 8,26 5,54 -9,77 -2,3 -4,4 -7,4zm-63 -53l61 36c8,-19 10,-40 4,-59 -3,-9 -8,-18 -14,-26l-51 49zm-35 -9l-27 -83c-1,-3 1,-7 5,-9 34,-11 72,-2 97,24 1,2 2,4 2,5 0,3 -1,4 -2,5l-63 62c-4,3 -11,1 -12,-4zm-10 -80l20 65 49 -48c-19,-16 -45,-22 -69,-17zm0 195c-40,0 -77,-26 -90,-66 -16,-50 11,-103 61,-119 1,-1 4,-1 5,0 2,1 3,2 4,4l26 81 73 43c3,2 5,7 2,10 -11,20 -30,35 -52,42 -10,3 -19,5 -29,5zm-32 -169c-37,16 -57,59 -44,99 14,41 58,65 100,51 17,-6 31,-16 41,-29l-69 -41c-1,-1 -2,-2 -3,-4l-25 -76zm222 303l-18 -44 -89 0 -18 44 125 0zm178 -101l-482 0 0 19c0,12 11,23 24,23 145,0 290,0 435,0 13,0 23,-10 23,-23l0 -19zm-482 -15l482 0 0 -245c0,-13 -10,-24 -23,-24l-435 0c-14,0 -24,11 -24,24l0 245z"/>
  <path class="fil1" d="M39 389l435 0c13,0 23,-10 23,-23l0 -19 -482 0 0 19c0,12 11,23 24,23z"/>
  <polygon class="fil1" points="301,404 212,404 194,448 319,448 "/>
  <path class="fil2" d="M15 332l482 0 0 -245c0,-13 -10,-24 -23,-24l-435 0c-14,0 -24,11 -24,24l0 245zm268 -38l0 -61c0,-4 3,-7 7,-7l44 0c4,0 7,3 7,7l0 61 7 0 0 -81c0,-4 3,-8 7,-8l43 0c5,0 8,4 8,8l0 81 6 0 0 -116c0,-5 4,-8 8,-8l43 0c4,0 7,3 7,8l0 116 9 0c4,0 7,4 7,8 0,4 -4,7 -7,7l-204 0c-4,0 -7,-3 -7,-7 0,-4 3,-8 7,-8l8 0zm180 -155l-171 0c-5,0 -8,-3 -8,-8 0,-4 3,-7 8,-7l171 0c4,0 7,3 7,7 0,5 -3,8 -7,8zm0 -33l-171 0c-5,0 -8,-3 -8,-7 0,-4 3,-7 8,-7l171 0c4,0 7,3 7,7 0,4 -3,7 -7,7zm-226 155c-1,0 -2,0 -3,-1l-75 -44c-4,-3 -5,-8 -1,-12l62 -61c3,-2 8,-2 11,0 10,11 18,23 22,37 8,26 5,54 -9,77 -2,3 -4,4 -7,4zm-23 -120l-63 62c-4,3 -11,1 -12,-4l-27 -83c-1,-3 1,-7 5,-9 34,-11 72,-2 97,24 1,2 2,4 2,5 0,3 -1,4 -2,5zm-4 126c-11,20 -30,35 -52,42 -10,3 -19,5 -29,5 -40,0 -77,-26 -90,-66 -16,-50 11,-103 61,-119 1,-1 4,-1 5,0 2,1 3,2 4,4l26 81 73 43c3,2 5,7 2,10z"/>
  <polygon class="fil3" points="298,240 298,294 326,294 326,240 "/>
  <polygon class="fil4" points="363,220 363,294 391,294 391,220 "/>
  <polygon class="fil3" points="427,185 427,294 455,294 455,185 "/>
  <path class="fil4" d="M235 244c8,-19 10,-40 4,-59 -3,-9 -8,-18 -14,-26l-51 49 61 36z"/>
  <path class="fil4" d="M149 184l49 -48c-19,-16 -45,-22 -69,-17l20 65z"/>
  <path class="fil3" d="M194 266l-69 -41c-1,-1 -2,-2 -3,-4l-25 -76c-37,16 -57,59 -44,99 14,41 58,65 100,51 17,-6 31,-16 41,-29z"/>
 </g>
</svg>
