<?xml version="1.0" encoding="UTF-8"?>
<!DOCTYPE svg PUBLIC "-//W3C//DTD SVG 1.1//EN" "http://www.w3.org/Graphics/SVG/1.1/DTD/svg11.dtd">
<!-- Creator: CorelDRAW -->
<svg xmlns="http://www.w3.org/2000/svg" xml:space="preserve" width="2.66666in" height="2.66666in" version="1.1" style="shape-rendering:geometricPrecision; text-rendering:geometricPrecision; image-rendering:optimizeQuality; fill-rule:evenodd; clip-rule:evenodd"
viewBox="0 0 2667 2667"
 xmlns:xlink="http://www.w3.org/1999/xlink">
 <defs>
  <style type="text/css">
   <![CDATA[
    .fil1 {fill:#FF4100}
    .fil0 {fill:#FF5900}
    .fil2 {fill:white}
   ]]>
  </style>
 </defs>
 <g id="_329847936">
  <rect class="fil0" width="2667" height="2667" rx="1333" ry="1333"/>
  <path class="fil1" d="M1333 0c734,0 1334,600 1334,1333l0 0c0,734 -600,1334 -1334,1334l0 -2667z"/>
 </g>
 <g id="Layer_x0020_1">
  <metadata id="CorelCorpID_0Corel-Layer"/>
  <path class="fil2" d="M1213 1578l-354 0c-29,0 -29,-45 0,-45l354 0c29,0 29,45 0,45zm-153 -694c-79,0 -155,-27 -217,-76 -108,245 -88,538 -5,815l473 0 0 -725c-10,-33 -21,-62 -34,-90 -61,49 -137,76 -217,76zm-120 -309c26,-28 99,-98 122,-95 13,2 61,33 115,92 63,67 121,161 156,253 34,-88 88,-177 149,-245 58,-65 110,-100 124,-100 21,0 89,61 116,90 18,20 37,41 55,65 94,128 183,331 165,630l147 187c3,4 4,9 4,14l0 228c0,20 -24,30 -38,16l-159 -159c-9,33 -18,66 -29,101 -7,22 -39,16 -57,16 0,135 14,124 -66,124l0 67c0,13 -10,23 -23,23l-229 0c-13,0 -23,-10 -23,-23l0 -67c-80,0 -66,11 -66,-124l-139 0c0,135 13,124 -66,124l0 67c0,13 -11,23 -23,23l-229 0c-13,0 -23,-10 -23,-23l0 -67c-80,0 -66,11 -66,-124 -18,0 -51,6 -57,-16 -11,-35 -21,-68 -29,-101l-159 159c-14,14 -39,4 -39,-16l0 -228c0,-5 2,-10 5,-14l147 -187c-19,-299 71,-502 165,-630 17,-22 34,-42 50,-60zm-77 191c113,96 281,96 394,0 -53,-105 -123,-188 -197,-237 -26,18 -126,97 -197,237zm-132 565l-112 143 0 165 140 -140c-13,-59 -23,-115 -28,-168zm171 416l316 0 0 -79 -316 0 0 79zm66 90l184 0 0 -45 -184 0 0 45zm92 306c-12,0 -22,-10 -22,-23l0 -200c0,-30 45,-30 45,0l0 200c0,13 -10,23 -23,23zm-74 43c-13,0 -23,-10 -23,-22l0 -201c0,-29 46,-29 46,0l0 201c0,12 -11,22 -23,22zm149 0c-13,0 -23,-10 -23,-22l0 -201c0,-29 45,-29 45,0l0 201c0,12 -10,22 -22,22zm630 -518l-317 0 0 79 317 0 0 -79zm171 -337c-6,53 -15,109 -28,168l140 140 0 -165 -112 -143zm-580 292l473 0c83,-275 103,-569 -5,-815 -127,100 -308,100 -435,0 -12,28 -23,57 -33,90l0 725zm437 -877c-68,-123 -159,-198 -187,-217 -73,50 -143,132 -197,237 113,96 282,96 395,0 -4,-7 -7,-13 -11,-20zm-278 1091l183 0 0 -45 -183 0 0 45zm91 306c-12,0 -22,-10 -22,-23l0 -200c0,-30 45,-30 45,0l0 200c0,13 -10,23 -23,23zm75 43c-13,0 -23,-10 -23,-22l0 -201c0,-29 46,-29 46,0l0 201c0,12 -11,22 -23,22zm-149 0c-12,0 -23,-10 -23,-22l0 -201c0,-29 46,-29 46,0l0 201c0,12 -10,22 -23,22zm-331 -815l-311 0c-13,0 -23,-10 -23,-22l0 -191c0,-13 10,-23 23,-23l311 0c12,0 22,10 22,23l0 191c0,12 -10,22 -22,22zm-289 -45l266 0 0 -146 -266 0 0 146zm865 45l-311 0c-12,0 -23,-10 -23,-22l0 -191c0,-13 11,-23 23,-23l311 0c13,0 23,10 23,23l0 191c0,12 -10,22 -23,22zm-288 -45l265 0 0 -146 -265 0 0 146zm301 -352l-355 0c-29,0 -29,-46 0,-46l355 0c29,0 29,46 0,46zm0 107l-355 0c-29,0 -29,-45 0,-45l355 0c29,0 29,45 0,45zm0 389l-355 0c-29,0 -29,-45 0,-45l355 0c29,0 29,45 0,45zm0 108l-355 0c-29,0 -29,-45 0,-45l355 0c29,0 29,45 0,45zm-577 -604l-354 0c-29,0 -29,-46 0,-46l354 0c29,0 29,46 0,46zm0 107l-354 0c-29,0 -29,-45 0,-45l354 0c29,0 29,45 0,45zm0 389l-354 0c-29,0 -29,-45 0,-45l354 0c29,0 29,45 0,45z"/>
 </g>
</svg>
