<?xml version="1.0" encoding="UTF-8" standalone="no"?> <svg xmlns="http://www.w3.org/2000/svg" viewBox="0 0 32 32"><title>Research</title><g id="_21-30" data-name="21-30"><g id="Research"><path d="M24.171,25.757a4.99,4.99,0,1,0-1.414,1.414l2.536,2.536a1,1,0,0,0,1.414-1.414Zm-6.293-.636a3,3,0,1,1,4.244,0A2.979,2.979,0,0,1,17.878,25.121Z"/><path d="M10,10h6a1,1,0,0,0,0-2H10a1,1,0,0,0,0,2Z"/><path d="M21,13a1,1,0,0,0-1-1H10a1,1,0,0,0,0,2H20A1,1,0,0,0,21,13Z"/><path d="M10,16a1,1,0,0,0,0,2h3a1,1,0,0,0,0-2Z"/><path d="M25.536,6.121,22.878,3.465A4.968,4.968,0,0,0,19.343,2H10A5.006,5.006,0,0,0,5,7V25a5.006,5.006,0,0,0,5,5h5a1,1,0,0,0,0-2H10a3,3,0,0,1-3-3V7a3,3,0,0,1,3-3h9V7a3,3,0,0,0,3,3h3v8a1,1,0,0,0,2,0V9.657A4.968,4.968,0,0,0,25.536,6.121ZM21,7V4.5a2.932,2.932,0,0,1,.464.377l2.658,2.656A3.1,3.1,0,0,1,24.5,8H22A1,1,0,0,1,21,7Z"/></g></g></svg>