<?xml version="1.0" encoding="utf-8"?>
<!-- Generator: Adobe Illustrator 18.1.1, SVG Export Plug-In . SVG Version: 6.00 Build 0)  -->
<svg version="1.1" xmlns="http://www.w3.org/2000/svg" xmlns:xlink="http://www.w3.org/1999/xlink" x="0px" y="0px"
	 viewBox="0 0 32 32" enable-background="new 0 0 32 32" xml:space="preserve">
<g id="Guides">
</g>
<g id="_x32_0">
</g>
<g id="_x31_9">
</g>
<g id="_x31_8">
</g>
<g id="_x31_7">
</g>
<g id="_x31_6">
</g>
<g id="_x31_5">
</g>
<g id="_x31_4">
</g>
<g id="_x31_3">
</g>
<g id="_x31_2">
	<path d="M29,28H5.4L29.7,3.7c0.4-0.4,0.4-1,0-1.4s-1-0.4-1.4,0L4,26.6V3c0-0.6-0.4-1-1-1S2,2.4,2,3v26c0,0.6,0.4,1,1,1h26
		c0.6,0,1-0.4,1-1S29.6,28,29,28z"/>
	<path d="M13,24c0,1.7,1.3,3,3,3s3-1.3,3-3s-1.3-3-3-3S13,22.3,13,24z M17,24c0,0.6-0.4,1-1,1s-1-0.4-1-1s0.4-1,1-1S17,23.4,17,24z"
		/>
	<path d="M23,18c0-1.7-1.3-3-3-3s-3,1.3-3,3s1.3,3,3,3S23,19.7,23,18z M19,18c0-0.6,0.4-1,1-1s1,0.4,1,1s-0.4,1-1,1S19,18.6,19,18z"
		/>
	<path d="M23,14c0,1.7,1.3,3,3,3s3-1.3,3-3s-1.3-3-3-3S23,12.3,23,14z M27,14c0,0.6-0.4,1-1,1s-1-0.4-1-1s0.4-1,1-1S27,13.4,27,14z"
		/>
	<path d="M8,19c1.7,0,3-1.3,3-3s-1.3-3-3-3s-3,1.3-3,3S6.3,19,8,19z M8,15c0.6,0,1,0.4,1,1s-0.4,1-1,1s-1-0.4-1-1S7.4,15,8,15z"/>
	<path d="M14,15c1.7,0,3-1.3,3-3s-1.3-3-3-3s-3,1.3-3,3S12.3,15,14,15z M14,11c0.6,0,1,0.4,1,1s-0.4,1-1,1s-1-0.4-1-1S13.4,11,14,11
		z"/>
	<path d="M18,9c1.7,0,3-1.3,3-3s-1.3-3-3-3s-3,1.3-3,3S16.3,9,18,9z M18,5c0.6,0,1,0.4,1,1s-0.4,1-1,1s-1-0.4-1-1S17.4,5,18,5z"/>
</g>
<g id="_x31_1">
</g>
<g id="_x31_0">
</g>
<g id="_x30_9">
</g>
<g id="_x30_8">
</g>
<g id="_x30_7">
</g>
<g id="_x30_6">
</g>
<g id="_x30_5">
</g>
<g id="_x30_4">
</g>
<g id="_x30_3">
</g>
<g id="_x30_2">
</g>
<g id="_x30_1">
</g>
</svg>
