<?xml version="1.0" encoding="UTF-8" standalone="no"?><!DOCTYPE svg PUBLIC "-//W3C//DTD SVG 1.1//EN" "http://www.w3.org/Graphics/SVG/1.1/DTD/svg11.dtd"><svg width="100%" height="100%" viewBox="0 0 32 32" version="1.1" xmlns="http://www.w3.org/2000/svg" xmlns:xlink="http://www.w3.org/1999/xlink" xml:space="preserve" xmlns:serif="http://www.serif.com/" style="fill-rule:evenodd;clip-rule:evenodd;stroke-linejoin:round;stroke-miterlimit:2;"><g><path d="M23.473,27c-0,1.105 -0.896,2 -2,2c-1.599,0 -3.561,0 -5,0c-1.105,-0 -2,-0.895 -2,-2l-0,-2c-7.24,0 -6,-6 -6,-6l-2.246,0c-0.167,-0 -0.322,-0.083 -0.415,-0.222c-0.093,-0.138 -0.11,-0.313 -0.047,-0.467c0.505,-1.221 1.506,-3.777 1.708,-5.311c0.272,-2.07 1.639,-9.717 9,-10c4.656,-0.179 7.843,1.831 9,4c1.419,2.661 1.55,6.429 -0.501,10c-1.719,2.995 -1.499,5.546 -1.499,9c-0,0.271 -0,0.621 -0,1Z" style="fill:#c7ced1;"/><path d="M15.337,3.107c0.362,-0.055 0.74,-0.092 1.136,-0.107c4.656,-0.179 7.843,1.831 9,4c1.419,2.661 1.55,6.429 -0.501,10c-1.719,2.995 -1.499,5.546 -1.499,9l-0,1c-0,1.105 -0.896,2 -2,2l-5,-0c-1.105,-0 -2,-0.895 -2,-2l-0,-0.034l2.895,0c0.53,0 1.039,-0.21 1.414,-0.585c0.375,-0.376 0.586,-0.884 0.586,-1.415l-0,-0.768c-0,-3.186 -0.203,-5.541 1.383,-8.304c1.892,-3.295 1.771,-6.771 0.462,-9.227c-0.852,-1.598 -2.898,-3.102 -5.876,-3.56Z" style="fill:#b5bec2;"/><path d="M12.788,14.222l-0.799,-0.602l2.32,-3.074l0.798,0.602l-2.319,3.074Z" style="fill:#707070;"/><path d="M20.967,12.891l-0.788,0.615l-1.927,-2.469l0.788,-0.616l1.927,2.47Z" style="fill:#707070;"/><path d="M17.266,17.052l-1,-0l0,-5.429l1,0l0,5.429Z" style="fill:#707070;"/><circle cx="16.766" cy="8.886" r="3.46" style="fill:#2dbbff;"/><circle cx="11.766" cy="14.926" r="1.5" style="fill:#2dbbff;"/><path d="M19.933,13.672c0.215,-0.8 1.038,-1.275 1.838,-1.061c0.799,0.214 1.274,1.037 1.06,1.837c-0.214,0.8 -1.037,1.275 -1.837,1.061c-0.8,-0.215 -1.275,-1.038 -1.061,-1.837Z" style="fill:#2dbbff;"/><circle cx="16.766" cy="17.926" r="1.5" style="fill:#2dbbff;"/><path d="M21.982,12.685c0.67,0.291 1.044,1.037 0.849,1.763c-0.214,0.8 -1.037,1.275 -1.837,1.061c-0.009,-0.003 -0.018,-0.005 -0.027,-0.008c0.491,-0.937 0.823,-1.885 1.015,-2.816Z" style="fill:#0ab0ff;"/></g></svg>