<?xml version="1.0" encoding="UTF-8"?>
<!DOCTYPE svg PUBLIC "-//W3C//DTD SVG 1.1//EN" "http://www.w3.org/Graphics/SVG/1.1/DTD/svg11.dtd">
<!-- Creator: CorelDRAW -->
<svg xmlns="http://www.w3.org/2000/svg" xml:space="preserve" width="1.70666in" height="1.70666in" version="1.1" style="shape-rendering:geometricPrecision; text-rendering:geometricPrecision; image-rendering:optimizeQuality; fill-rule:evenodd; clip-rule:evenodd"
viewBox="0 0 1707 1707"
 xmlns:xlink="http://www.w3.org/1999/xlink">
 <defs>
  <style type="text/css">
   <![CDATA[
    .fil0 {fill:#666666}
    .fil1 {fill:#E6F7DB}
   ]]>
  </style>
 </defs>
 <g id="Layer_x0020_1">
  <metadata id="CorelCorpID_0Corel-Layer"/>
  <path class="fil0" d="M1037 1041l-165 0c-12,0 -22,-10 -22,-22 0,-13 10,-23 22,-23l165 0c16,0 30,-14 30,-30 0,-17 -13,-31 -30,-31l0 0 -165 0c-12,0 -22,-10 -22,-23 0,-12 10,-22 22,-22l164 0 1 0c16,0 30,-14 30,-31 0,-16 -13,-30 -29,-30l-1 0 -165 0c-12,0 -22,-10 -22,-23 0,-12 10,-22 22,-22l164 0 1 0c16,0 30,-14 30,-31 0,-17 -14,-30 -30,-30l-202 0c-2,0 -5,-1 -8,-2l0 0 -1 0 0 0 0 0 0 0 -1 0 0 0 0 0 0 -1 -1 0 0 0 -1 0 0 -1 0 0 -1 0 0 0 0 0 0 0 0 0 -1 -1 0 0 0 0 0 0 -1 0 0 0 0 -1 0 0c-2,-1 -3,-3 -5,-5l0 0 0 0 0 -1 0 0 0 0 0 0 -1 -1 0 0 0 0 0 -1 0 0c0,-1 -1,-1 -1,-2l0 -1 0 0 0 0 0 0 0 -1 -1 0 0 0 0 -1 0 0 0 0 0 0 0 -1 0 0 0 -1 0 0 0 0 0 0c0,-2 0,-4 0,-5l0 -1 0 0c0,-1 1,-1 1,-2l0 0 0 -1 0 0 0 0 0 0 0 -1 0 0 1 -1 0 0 0 0 0 -1 0 0c1,-1 1,-1 1,-2l0 0 0 0c32,-54 42,-102 28,-133 -7,-16 -20,-28 -41,-36 0,56 -17,174 -125,279l0 271c33,23 112,33 157,33l1 0 202 0c16,0 30,-14 30,-30 0,-17 -14,-31 -30,-31zm-947 610c-5,0 -11,-2 -15,-6 -8,-7 -10,-18 -5,-27l190 -353 -70 0c-105,0 -190,-85 -190,-190l0 -830c0,-105 85,-190 190,-190l1327 0c104,0 190,85 190,190l0 830c0,105 -86,190 -190,190l-804 0 -611 383c-4,2 -8,3 -12,3zm100 -1550c-80,0 -145,64 -145,144l0 830c0,80 65,145 145,145l109 0c8,0 15,4 19,11 4,7 4,15 1,22l-168 311 543 -341c4,-2 8,-3 12,-3l811 0c79,0 144,-65 144,-145l0 -830c0,-80 -65,-144 -144,-144l-1327 0 0 0zm378 322c-3,0 -7,-1 -11,-3l-60 -34 -61 34c-7,4 -17,3 -24,-2 -7,-5 -11,-14 -9,-22l13 -68 -50 -48c-7,-6 -9,-15 -6,-23 2,-9 10,-15 18,-16l69 -8 29 -63c4,-8 12,-13 21,-13 9,0 17,5 20,13l30 63 68 8c9,1 16,7 19,16 3,8 0,17 -6,23l-50 48 13 68c1,8 -2,17 -9,22 -4,3 -9,5 -14,5zm-71 -85c4,0 7,1 11,3l29 16 -6 -33c-2,-8 1,-16 6,-21l25 -23 -33 -4c-8,-1 -15,-6 -18,-13l-14 -30 -14 30c-4,7 -10,12 -18,13l-33 4 24 23c6,5 8,13 7,21l-6 33 29 -16c3,-2 7,-3 11,-3zm428 85c-4,0 -8,-1 -11,-3l-61 -34 -60 34c-8,4 -17,3 -25,-2 -7,-5 -10,-14 -8,-22l13 -68 -51 -48c-6,-6 -9,-15 -6,-23 3,-9 10,-15 19,-16l68 -8 30 -63c4,-8 12,-13 20,-13l0 0c9,0 17,5 21,13l29 63 69 8c9,1 16,7 19,16 2,8 0,17 -6,23l-51 48 13 68c2,8 -2,17 -9,22 -4,3 -8,5 -13,5zm-137 -143l25 23c5,5 8,13 6,21l-6 33 29 -16c7,-4 15,-4 22,0l29 16 -6 -33c-1,-8 1,-16 7,-21l24 -23 -33 -4c-8,-1 -14,-6 -18,-13l-14 -30 -14 30c-3,7 -10,12 -18,13l-33 4zm493 143c-3,0 -7,-1 -11,-3l-60 -34 -61 34c-7,4 -17,3 -24,-2 -7,-5 -11,-14 -9,-22l13 -68 -50 -48c-7,-6 -9,-15 -6,-23 2,-9 10,-15 18,-16l69 -8 29 -63c4,-8 12,-13 21,-13 9,0 17,5 20,13l30 63 68 8c9,1 16,7 19,16 3,8 1,17 -6,23l-50 48 13 68c1,8 -2,17 -9,22 -4,3 -9,5 -14,5zm-71 -85c4,0 7,1 11,3l29 16 -6 -33c-2,-8 1,-16 6,-21l25 -23 -33 -4c-8,-1 -15,-6 -18,-13l-14 -30 -14 30c-4,7 -10,12 -18,13l-33 4 24 23c6,5 8,13 7,21l-6 33 29 -16c3,-2 7,-3 11,-3zm-173 810l-202 0 0 0 0 0 0 0 0 0 0 0 -1 0c-13,-1 -98,-3 -157,-28l0 21c0,12 -10,22 -23,22l-197 0c-13,0 -23,-10 -23,-22l0 -397c0,-12 10,-22 23,-22l197 0c9,0 17,5 21,12 96,-116 82,-237 81,-242 -1,-8 2,-15 7,-20 5,-5 13,-7 20,-6 51,10 86,34 102,70 21,46 6,101 -13,141l165 0c42,0 76,34 76,76 0,21 -9,40 -22,53 13,14 22,33 22,53 0,21 -9,40 -22,53 13,14 22,33 22,54 0,20 -9,39 -22,53 13,13 22,32 22,53 0,42 -34,76 -76,76zm-557 -30l152 0 0 -351 -152 0 0 351z"/>
  <path class="fil1" d="M1113 966c0,20 -9,39 -22,53 13,13 22,32 22,53 0,42 -34,76 -76,76l-202 0 0 0 0 0 0 0 0 0 -1 0c-13,-1 -98,-3 -157,-28l0 21c0,12 -10,22 -23,22l-197 0c-13,0 -23,-10 -23,-22l0 -397c0,-12 10,-22 23,-22l197 0c9,0 17,5 21,12 96,-116 82,-237 81,-242 -1,-8 2,-15 7,-20 5,-5 13,-7 20,-6 51,10 86,34 102,70 21,46 6,101 -13,141l165 0c42,0 76,34 76,76 0,21 -9,40 -22,53 13,14 22,33 22,53 0,21 -9,40 -22,53 13,14 22,33 22,54zm-923 -865l0 0zm516 1119l811 0c79,0 144,-65 144,-145l0 -830c0,-80 -65,-144 -144,-144l-1327 0c-80,0 -145,64 -145,144l0 830c0,80 65,145 145,145l109 0c8,0 15,4 19,11 4,7 4,15 1,22l-168 311 543 -341c4,-2 8,-3 12,-3zm-138 -797c-3,0 -7,-1 -11,-3l-60 -34 -61 34c-7,4 -17,3 -24,-2 -7,-5 -11,-14 -9,-22l13 -68 -50 -48c-7,-6 -9,-15 -6,-23 2,-9 10,-15 18,-16l69 -8 29 -63c4,-8 12,-13 21,-13 9,0 17,5 20,13l30 63 68 8c9,1 16,7 19,16 3,8 0,17 -6,23l-50 48 13 68c1,8 -2,17 -9,22 -4,3 -9,5 -14,5zm357 0c-4,0 -8,-1 -11,-3l-61 -34 -60 34c-8,4 -17,3 -25,-2 -7,-5 -10,-14 -8,-22l13 -68 -51 -48c-6,-6 -9,-15 -6,-23 3,-9 10,-15 19,-16l68 -8 30 -63c4,-8 12,-13 20,-13 9,0 17,5 21,13l29 63 69 8c9,1 16,7 19,16 2,8 0,17 -6,23l-51 48 13 68c2,8 -2,17 -9,22 -4,3 -8,5 -13,5zm356 0c-3,0 -7,-1 -11,-3l-60 -34 -61 34c-7,4 -17,3 -24,-2 -7,-5 -11,-14 -9,-22l13 -68 -50 -48c-7,-6 -9,-15 -6,-23 2,-9 10,-15 18,-16l69 -8 29 -63c4,-8 12,-13 21,-13 9,0 17,5 20,13l30 63 68 8c9,1 16,7 19,16 3,8 1,17 -6,23l-50 48 13 68c1,8 -2,17 -9,22 -4,3 -9,5 -14,5z"/>
 </g>
</svg>
