<?xml version="1.0" encoding="UTF-8"?>
<!DOCTYPE svg PUBLIC "-//W3C//DTD SVG 1.1//EN" "http://www.w3.org/Graphics/SVG/1.1/DTD/svg11.dtd">
<!-- Creator: CorelDRAW -->
<svg xmlns="http://www.w3.org/2000/svg" xml:space="preserve" width="512px" height="512px" version="1.1" style="shape-rendering:geometricPrecision; text-rendering:geometricPrecision; image-rendering:optimizeQuality; fill-rule:evenodd; clip-rule:evenodd"
viewBox="0 0 512 512"
 xmlns:xlink="http://www.w3.org/1999/xlink"
 xmlns:xodm="http://www.corel.com/coreldraw/odm/2003">
 <defs>
  <style type="text/css">
   <![CDATA[
    .fil4 {fill:#518CAA}
    .fil1 {fill:#2F4553}
    .fil3 {fill:#9CBDCB}
    .fil2 {fill:#DDE9EE}
    .fil0 {fill:#FF6464}
   ]]>
  </style>
 </defs>
 <g id="Layer_x0020_1">
  <metadata id="CorelCorpID_0Corel-Layer"/>
  <g id="_2023866177888">
   <path class="fil0" d="M51 98.43l-44 0c-3.9,0 -7,-3.1 -7,-7 0,-3.9 3.1,-7 7,-7l44 0c3.9,0 7,3.1 7,7 0,3.9 -3.1,7 -7,7z"/>
   <path class="fil0" d="M51 172.43l-44 0c-3.9,0 -7,-3.1 -7,-7 0,-3.9 3.1,-7 7,-7l44 0c3.9,0 7,3.1 7,7 0,3.9 -3.1,7 -7,7z"/>
   <path class="fil0" d="M51 247.43l-44 0c-3.9,0 -7,-3.1 -7,-7 0,-3.9 3.1,-7 7,-7l44 0c3.9,0 7,3.1 7,7 0,3.9 -3.1,7 -7,7z"/>
   <path class="fil0" d="M51 322.43l-44 0c-3.9,0 -7,-3.1 -7,-7 0,-3.9 3.1,-7 7,-7l44 0c3.9,0 7,3.1 7,7 0,3.9 -3.1,7 -7,7z"/>
   <path class="fil0" d="M47 396.43l-40 0c-3.9,0 -7,-3.1 -7,-7 0,-3.9 3.1,-7 7,-7l40 0c3.9,0 7,3.1 7,7 0,3.9 -3.1,7 -7,7z"/>
   <path class="fil1" d="M7 465.43c-1.2,0 -2.4,-0.3 -3.5,-1 -3.3,-1.9 -4.5,-6.2 -2.5,-9.6l61 -104.9c-4.3,-4.6 -7,-10.7 -7,-16.6 0,-12.8 11.2,-24 24,-24 12.8,0 24,11.2 24,24 0,2 -0.3,3.9 -0.7,5.7l57.7 33.1c3.2,-3.2 7.5,-5.5 12,-6.4l0 -71.3c-9.9,-2.9 -17,-12 -17,-23 0,-12.7 10.8,-23 24,-23 8.4,0 15.7,4.1 19.9,10.7l102.1 -26.8c0.1,-12.7 11.3,-23.9 24,-23.9 3.7,0 7.7,1.1 11.2,2.9l80.5 -80.5c-1.8,-3.3 -2.7,-7.1 -2.7,-11.4 0,-13.5 10.5,-24 24,-24 12.7,0 23,10.8 23,24 0,13.7 -9.9,24 -23,24 -4.1,0 -7.9,-1 -11.3,-2.8l-80.6 80.6c1.8,3.5 2.9,7.5 2.9,11.2 0,12.8 -11.2,24 -24,24 -8.6,0 -16.3,-4.3 -20.2,-10.6l-101.8 26.7c-0.5,10.5 -7.4,19 -17,21.9l0 73.7c8.3,3.5 14,11.8 14,21.3 0,12.8 -11.2,24 -24,24 -12.8,0 -24,-11.2 -24,-24 0,-1.8 0.2,-3.6 0.7,-5.3l-57.2 -32.8c-4.4,3.8 -10.4,6.1 -16.5,6.1 -1.7,0 -3.4,-0.2 -4.8,-0.5l-61.1 105c-1.3,2.3 -3.7,3.5 -6.1,3.5z"/>
   <g>
    <path class="fil2" d="M142.51 209.48c-0.01,-0.1 -0.01,-0.2 -0.01,-0.3l0 -137.81c0,-2.25 1.79,-4.04 4.04,-4.04 2.25,0 4.03,1.79 4.03,4.04l0 0.25 126.86 0 0 -0.25c0,-2.25 1.79,-4.04 4.04,-4.04 2.25,0 4.04,1.79 4.04,4.04l0 137.76 0 0.05 0 0.03c-0.01,0.08 -0.01,0.16 -0.01,0.24 -0.41,15.92 -37.03,24.53 -71.5,24.53 -34.44,0 -71.04,-8.61 -71.49,-24.5z"/>
    <path class="fil3" d="M142.5 109.03l0 -11.13c0.03,6.81 32.83,16.71 71.5,16.71 38.7,0 71.51,-9.91 71.51,-16.72l0 11.14c-14.35,9 -45.26,13.66 -71.51,13.66 -26.25,0 -57.15,-4.66 -71.5,-13.66z"/>
    <path class="fil3" d="M142.5 140.17l0 -11.13c0.03,6.8 32.83,16.71 71.5,16.71 38.7,0 71.51,-9.92 71.51,-16.72l0 11.14c-14.35,8.99 -45.26,13.66 -71.51,13.66 -26.25,0 -57.15,-4.67 -71.5,-13.66z"/>
    <path class="fil3" d="M142.5 173.48l0 -12.14c0.18,0.46 0.28,0.96 0.28,1.49 0,6.81 32.53,14.64 71.22,14.64 38.7,0 71.51,-9.92 71.51,-16.73l0 11.14c-14.35,9 -45.26,13.66 -71.51,13.66 -26.39,0 -57.34,-3.56 -71.5,-12.06z"/>
    <path class="fil3" d="M142.5 200.14l0 -11.13c0.03,6.8 32.83,16.71 71.5,16.71 38.7,0 71.51,-9.92 71.51,-16.72l0 11.14c-14.35,8.99 -45.26,13.65 -71.51,13.65 -26.25,0 -57.15,-4.66 -71.5,-13.65z"/>
    <path class="fil3" d="M214 96.16c-35.52,0 -71.5,-8.53 -71.5,-24.79 0,-16.26 35.98,-24.8 71.5,-24.8 35.52,0 71.51,8.54 71.51,24.8 0,16.26 -35.99,24.79 -71.51,24.79z"/>
   </g>
   <path class="fil4" d="M505 465.43l-498 0c-3.9,0 -7,-3.1 -7,-7l0 -398c0,-3.9 3.1,-7 7,-7 3.9,0 7,3.1 7,7l0 391 491 0c3.9,0 7,3.1 7,7 0,3.9 -3.1,7 -7,7z"/>
  </g>
 </g>
</svg>
