<?xml version="1.0" encoding="UTF-8" standalone="no"?> <svg width="512" height="512" viewBox="0 0 512 512" fill="none" xmlns="http://www.w3.org/2000/svg">
<path d="M440 24V424L376 488H72V24H440Z" fill="#CCDCC2"/>
<path d="M240 432C284.183 432 320 396.183 320 352C320 307.817 284.183 272 240 272C195.817 272 160 307.817 160 352C160 396.183 195.817 432 240 432Z" fill="#008CB7"/>
<path d="M440 424L376 488V424H440Z" fill="#9CBD8A"/>
<path d="M116.653 461.607L140.807 488L147.429 452.841L55.3919 129.692C54.2296 125.611 51.4936 122.159 47.7858 120.095C44.0781 118.031 39.7023 117.525 35.6212 118.687V118.687C31.54 119.85 28.0878 122.586 26.0239 126.293C23.96 130.001 23.4535 134.377 24.6159 138.458L116.653 461.607Z" fill="#F9B89B"/>
<path d="M312 56H200V72H312V56Z" fill="#ABC79B"/>
<path d="M392 224H120V240H392V224Z" fill="#8BB276"/>
<path d="M144 232V136H176V232" fill="#8BB276"/>
<path d="M208 232V120H240V232" fill="#8BB276"/>
<path d="M272 232V104H304V232" fill="#8BB276"/>
<path d="M368 88H336V232H368V88Z" fill="#8BB276"/>
<path d="M472 320H424L384 360V320H360C355.757 320 351.687 318.314 348.686 315.314C345.686 312.313 344 308.243 344 304V208C344 203.757 345.686 199.687 348.686 196.686C351.687 193.686 355.757 192 360 192H472C476.243 192 480.313 193.686 483.314 196.686C486.314 199.687 488 203.757 488 208V304C488 308.243 486.314 312.313 483.314 315.314C480.313 318.314 476.243 320 472 320Z" fill="#008CB7"/>
<path d="M433.141 211.884L385.139 291.883L398.858 300.115L446.861 220.117L433.141 211.884Z" fill="#62B8D3"/>
<path d="M408 216H392V232H408V216Z" fill="#62B8D3"/>
<path d="M440 280H424V296H440V280Z" fill="#62B8D3"/>
<path d="M240 352H352V354.745C352 369.093 349.174 383.3 343.683 396.555C338.193 409.811 330.145 421.855 320 432L240 352Z" fill="#00779C"/>
<path d="M55.392 129.692C54.2296 125.611 51.4936 122.159 47.7858 120.095C44.0781 118.031 39.7023 117.525 35.6211 118.687C31.54 119.85 28.0877 122.586 26.0239 126.293C23.96 130.001 23.4535 134.377 24.6159 138.458L31.19 161.54L61.9661 152.774L55.392 129.692Z" fill="#E88977"/>
<path d="M208.332 278.525C203.424 280.647 198.742 283.256 194.356 286.313L230.076 350.61L178.062 402.624C181.448 406.762 185.238 410.552 189.375 413.938L245.657 357.657C246.886 356.428 247.681 354.831 247.923 353.11C248.164 351.388 247.837 349.635 246.993 348.115L208.332 278.525Z" fill="#00779C"/>
</svg>
