<svg width="445" height="360" xmlns="http://www.w3.org/2000/svg" xmlns:xlink="http://www.w3.org/1999/xlink" xml:space="preserve" overflow="hidden"><defs><clipPath id="clip0"><rect x="44" y="39" width="445" height="360"/></clipPath><linearGradient x1="137.058" y1="246.001" x2="154.827" y2="235.502" gradientUnits="userSpaceOnUse" spreadMethod="pad" id="fill1"><stop offset="0" stop-color="#909CA9"/><stop offset="1" stop-color="#EDEDEE"/></linearGradient><linearGradient x1="137.465" y1="48.0649" x2="151.762" y2="48.0649" gradientUnits="userSpaceOnUse" spreadMethod="pad" id="fill2"><stop offset="0" stop-color="#939FAB"/><stop offset="1" stop-color="#DCDEE1"/></linearGradient><radialGradient cx="-14217.4" cy="7277.7" r="898.12" gradientUnits="userSpaceOnUse" spreadMethod="pad" id="fill3" gradientTransform="matrix(-0.0202959 -0.00304867 -0.00616585 0.0405919 -34.0758 -225.124)"><stop offset="0" stop-color="#EE352C"/><stop offset="1" stop-color="#A91D22"/></radialGradient></defs><g clip-path="url(#clip0)" transform="translate(-44 -39)"><path d="M241.628 139.45 192.489 155.496 149.74 174.363 137.78 177.52C134.734 180.418 131.541 183.352 128.086 186.324 124.298 189.591 120.77 192.563 118.058 194.718 115.05 197.095 110.592 201.551 108.327 204.374 104.947 208.608 102.273 213.102 101.121 216.557 99.0784 222.796 100.082 229.111 104.019 234.941 109.07 242.369 119.135 249.947 130.872 255.109 136.852 257.746 146.917 261.127 154.494 263.02 167.085 266.214 191.45 269.669 204.857 270.189 207.568 270.301 211.21 270.301 211.357 270.189 211.655 270.003 213.734 266.029 216.149 261.09 224.394 244.264 230.337 228.479 233.568 214.996 235.5 206.827 237.022 195.944 238.024 183.056 238.285 179.454 238.396 167.382 238.173 163.296 237.839 156.611 237.245 151.188 236.317 145.877 236.168 145.097 236.13 144.391 236.205 144.354 236.353 144.243 236.798 144.094 242.852 142.348L241.628 139.451 241.628 139.451 241.628 139.451ZM230.411 146.025C230.858 146.025 232.045 157.427 232.343 164.633 232.417 166.156 232.379 167.158 232.305 167.158 232.009 167.158 226.028 163.63 221.758 160.956 218.043 158.616 210.987 153.936 209.872 153.045 209.5 152.785 209.538 152.748 212.583 151.708 217.745 149.962 230.003 146.025 230.411 146.025ZM205.378 154.27C205.712 154.27 206.566 154.753 208.61 156.016 216.26 160.807 226.66 166.601 231.117 168.533 232.49 169.127 232.639 168.904 229.483 171.059 222.723 175.663 214.291 180.195 203.966 184.763 202.146 185.58 200.623 186.212 200.587 186.212 200.512 186.212 200.734 185.284 201.031 184.169 203.521 174.92 204.932 165.561 205.006 158.058 205.044 154.344 205.044 154.344 205.378 154.233 205.304 154.27 205.34 154.27 205.378 154.27ZM200.216 156.239C200.438 156.461 200.289 164.781 199.993 167.047 199.323 172.469 198.284 177.52 196.576 183.205 196.167 184.577 195.795 185.729 195.721 185.803 195.572 185.99 190.484 181.012 188.812 179.08 185.916 175.737 183.65 172.396 181.978 169.127 181.125 167.455 179.788 164.187 179.899 164.075 180.493 163.667 200.067 156.09 200.216 156.239ZM175.924 165.784C175.961 165.784 175.999 165.784 176.037 165.821 176.11 165.895 176.371 166.49 176.593 167.158 177.782 170.389 180.456 175.143 182.759 178.19 185.284 181.533 188.589 185.097 191.338 187.437 192.229 188.18 193.046 188.886 193.157 188.997 193.382 189.22 193.455 189.182 187.401 191.486 180.382 194.159 172.73 196.835 163.965 199.657 161.871 200.332 159.779 201.012 157.689 201.7 157.354 201.812 157.465 201.625 158.431 200.102 162.776 193.306 169.387 179.973 173.101 170.538 173.733 168.904 174.365 167.27 174.477 166.898 174.626 166.378 174.811 166.192 175.294 165.932 175.552 165.859 175.814 165.784 175.924 165.784ZM168.497 168.867C168.608 168.941 166.714 172.915 164.857 176.554 161.254 183.575 157.317 190.484 152.043 198.878 151.151 200.325 150.297 201.663 150.186 201.812 150 202.072 149.926 201.997 149.331 200.846 148.069 198.357 147.028 195.163 146.471 192.229 145.914 189.331 146.026 184.28 146.657 181.161 147.14 178.858 147.103 178.895 148.217 178.337 152.971 175.924 168.348 168.718 168.497 168.867ZM232.566 171.467 232.566 173.026C232.566 181.309 231.675 192.674 230.373 200.957 230.151 202.406 229.964 203.593 229.928 203.632 229.928 203.632 228.851 203.334 227.589 202.963 222.017 201.217 215.964 198.654 210.504 195.646 206.9 193.678 201.663 190.446 201.812 190.297 201.849 190.261 203.41 189.442 205.229 188.478 212.51 184.69 219.491 180.603 225.545 176.556 227.811 175.033 231.228 172.582 231.971 171.913L232.566 171.467ZM140.454 182.46C140.603 182.46 140.566 182.758 140.343 184.094 140.194 185.06 140.009 186.842 139.935 188.069 139.637 193.491 140.529 197.503 143.203 202.999 143.946 204.523 144.541 205.785 144.503 205.821 144.243 206.046 119.656 213.251 111.93 215.368 109.627 215.998 107.622 216.557 107.472 216.593 107.213 216.668 107.176 216.63 107.287 215.998 108.141 210.54 112.301 203.408 118.095 197.391 121.958 193.38 125.041 191.04 130.315 188.031 134.103 185.877 139.934 182.646 140.38 182.497 140.38 182.46 140.417 182.46 140.454 182.46ZM198.395 192.823C198.433 192.786 199.323 193.269 200.401 193.901 208.349 198.506 219.417 202.778 228.851 204.968L229.705 205.153 228.517 205.821C223.577 208.57 207.346 215.33 190.744 221.534 188.329 222.425 185.954 223.315 185.507 223.502 185.061 223.687 184.652 223.798 184.652 223.762 184.652 223.725 185.322 222.425 186.175 220.827 190.818 212.136 195.499 201.551 197.874 194.197 198.172 193.491 198.357 192.861 198.395 192.823ZM192.489 194.754C192.527 194.791 192.231 195.571 191.859 196.463 188.627 204.299 184.393 212.842 178.971 222.425 177.597 224.877 176.444 226.845 176.407 226.845 176.371 226.845 175.256 226.176 173.918 225.359 166.044 220.53 159.062 214.589 154.494 208.831L153.825 208.014 157.205 207.085C169.313 203.78 179.601 200.214 189.816 195.833 191.265 195.238 192.453 194.754 192.489 194.754ZM229.186 207.568C229.186 207.568 229.222 207.606 229.186 207.568 229.222 208.423 227.328 216.074 225.768 221.608 224.468 226.249 223.353 229.89 221.311 236.315 220.421 239.139 219.641 241.479 219.604 241.479 219.566 241.479 219.343 241.441 219.121 241.367 208.089 239.36 198.21 236.575 188.925 232.862 186.324 231.821 182.61 230.149 182.388 229.964 182.314 229.889 184.542 228.851 187.365 227.624 204.264 220.232 221.794 211.838 227.811 208.236 228.517 207.791 229.073 207.568 229.186 207.568ZM144.466 210.465C144.54 210.54 139.823 217.336 133.212 226.585 130.909 229.817 128.235 233.604 127.232 235.015 126.229 236.428 124.707 238.656 123.852 239.992L122.292 242.407 120.62 240.996C118.652 239.362 115.235 235.87 113.712 233.939 110.518 229.966 108.364 225.768 107.51 221.943 107.101 220.16 107.101 219.268 107.472 219.157 108.029 219.008 117.946 216.668 127.232 214.513 132.395 213.325 138.374 211.914 140.528 211.395 142.683 210.874 144.429 210.465 144.466 210.465ZM149.22 212.285 150.408 213.623C155.757 219.602 161.217 224.023 167.828 227.885 169.017 228.554 169.908 229.147 169.833 229.185 169.574 229.371 146.88 237.43 136.369 241.069 130.464 243.15 125.598 244.82 125.561 244.82 125.524 244.82 125.19 244.598 124.818 244.337L124.149 243.856 125.226 242.296C128.717 237.245 133.101 231.711 142.646 220.196L149.22 212.285ZM178.859 233.492C178.895 233.456 180.529 234.051 182.535 234.794 187.365 236.613 191.189 237.764 196.316 239.064 202.629 240.662 211.766 242.222 217.153 242.667 217.97 242.741 218.415 242.816 218.266 242.928 218.006 243.075 212.547 244.896 208.536 246.158 202.146 248.164 182.648 253.92 166.751 258.49 163.817 259.344 161.291 260.05 161.142 260.086 160.771 260.161 159.545 259.826 159.545 259.678 159.545 259.603 160.437 258.452 161.514 257.19 166.862 250.801 172.173 243.669 176.593 236.911 177.818 235.053 178.859 233.53 178.859 233.492ZM172.322 233.679C172.36 233.717 169.722 237.951 165.117 245.23 163.148 248.313 160.957 251.803 160.176 253.029 159.434 254.218 158.319 256.075 157.688 257.114L156.611 259.009 156.054 258.861C154.717 258.49 145.32 255.184 142.831 254.18 139.748 252.954 136.554 251.469 134.177 250.207 131.206 248.609 127.492 246.232 127.789 246.158 127.863 246.122 132.952 244.747 139.08 243.075 155.348 238.655 164.373 236.092 170.279 234.236 171.356 233.902 172.284 233.641 172.322 233.679ZM218.562 244.524 218.6 244.524C218.749 244.896 212.732 261.609 210.54 266.882 210.057 268.071 209.872 268.369 209.612 268.331 208.981 268.295 200.253 267.069 194.94 266.29 185.693 264.878 170.168 262.165 166.268 261.275L165.377 261.09 170.91 259.826C182.795 257.152 188.516 255.703 194.31 253.92 201.627 251.692 208.87 248.907 216.185 245.49 217.338 244.969 218.304 244.562 218.562 244.524Z" fill="url(#fill1)" transform="matrix(1 0 0 1.00073 104.061 14.0779)"/><path d="M190.967 24.9056C190.15 24.7948 176.965 29.5488 168.459 33.0026 156.982 37.683 148.069 42.1402 142.572 46.0021 140.529 47.4512 137.966 50.0136 137.558 51.0163 137.409 51.3878 137.335 51.8334 137.335 52.2791L142.312 56.9961 154.16 60.7845 182.35 65.8359 214.589 71.3701 214.923 68.5845C214.811 68.5845 214.738 68.5475 214.627 68.5475L210.393 67.8787 209.538 66.3561C205.155 58.6304 200.327 49.0478 197.504 42.5852 195.314 37.5709 193.233 31.7774 192.082 27.6174 191.45 25.0918 191.376 24.9433 190.968 24.9063L190.968 24.9054 190.967 24.9054ZM190.372 26.8004 190.41 26.8004C190.446 26.837 190.595 27.8777 190.744 29.1027 191.374 34.3032 192.527 39.3166 194.348 44.7394 195.721 48.8252 195.721 48.6025 194.125 48.1194 190.336 47.0797 173.363 44.1455 161.069 42.437 159.1 42.1768 157.428 41.917 157.428 41.88 157.28 41.7315 166.305 37.0141 170.279 35.1575 175.367 32.8171 189.333 26.9859 190.372 26.8004ZM154.568 43.4396 156.017 43.9219C163.891 46.5966 183.686 50.3851 194.606 51.2764 195.833 51.3879 196.872 51.4996 196.91 51.4996 196.946 51.5366 195.906 52.0938 194.569 52.7249 189.295 55.362 183.501 58.5934 179.49 61.082 178.303 61.8245 177.224 62.4192 177.076 62.4192 176.927 62.4192 176.148 62.2705 175.331 62.159L173.845 61.9358 170.131 58.2957C163.594 51.9449 158.469 47.0424 156.5 45.1849L154.568 43.4396ZM153.083 44.5908 158.32 51.1279C161.179 54.7307 164.076 58.2589 164.708 59.0386 165.339 59.8191 165.86 60.4507 165.823 60.4877 165.674 60.599 158.246 59.1502 154.309 58.2593 150.26 57.3305 148.589 56.8848 146.1 56.1052L144.057 55.4363 144.057 54.916C144.094 52.4274 147.252 48.7135 152.6 44.9254L153.083 44.5908ZM197.578 53.5049C197.727 53.5049 197.912 53.839 198.357 54.8418 199.621 57.6273 203.559 65.1302 204.523 66.5785 204.821 67.0619 205.34 67.0989 200.104 66.2446 187.514 64.2013 183.465 63.5335 183.465 63.4591 183.465 63.4221 183.837 63.162 184.32 62.9018 188.22 60.748 192.155 57.9993 195.648 55.065 196.502 54.3592 197.282 53.6907 197.429 53.579 197.467 53.5049 197.542 53.4679 197.578 53.5049Z" fill="url(#fill2)" transform="matrix(1 0 0 1.00073 104.061 14.0779)"/><path d="M137.817 50.4963C137.817 50.4963 137 51.7968 137.78 53.7282 138.264 54.9163 139.675 56.3646 141.272 57.8506 141.272 57.8506 157.799 73.9699 159.805 76.273 168.942 86.8209 172.916 97.2206 173.288 111.557 173.511 120.769 171.764 128.865 167.419 138.262 159.694 155.125 143.388 173.733 118.243 194.384L121.921 193.157C124.298 191.374 127.529 189.482 135.106 185.322 152.599 175.737 172.284 166.935 196.427 157.873 231.19 144.799 288.351 129.496 320.888 124.52L324.267 123.999 323.747 123.182C320.777 118.577 318.734 115.717 316.281 112.671 309.151 103.832 300.498 96.6636 289.912 90.7208 275.352 82.5872 256.52 76.236 232.677 71.5189 228.183 70.6271 218.302 68.9188 210.28 67.6932 193.269 65.0568 182.275 63.2365 170.167 61.1565 165.822 60.4134 159.322 59.2994 155.013 58.3711 152.785 57.8878 148.514 56.8851 145.171 55.7338 142.497 54.6933 138.634 53.6534 137.817 50.4963ZM147.4 59.7821C147.437 59.7454 148.031 59.9676 148.812 60.2277 150.223 60.71 152.043 61.2673 154.197 61.862 155.828 62.3104 157.462 62.7437 159.1 63.1618 161.328 63.7186 163.185 64.2388 163.222 64.2388 163.483 64.4989 167.234 76.4948 168.497 81.1005 168.979 82.8466 169.351 84.3319 169.314 84.3319 169.276 84.3696 168.868 83.7378 168.385 82.8836 164.039 75.2323 157.168 67.4698 149.22 61.2298 148.18 60.4877 147.4 59.8191 147.4 59.7821ZM165.674 64.8333C165.86 64.8333 166.677 64.9448 167.679 65.1674 173.994 66.5787 185.322 68.733 192.565 69.9588 193.789 70.1443 194.755 70.3676 194.755 70.4415 194.755 70.5161 194.31 70.7756 193.752 71.0731 192.527 71.7043 187.588 74.6382 185.954 75.7526 181.829 78.5011 178.116 81.4723 175.443 84.1464 174.365 85.2237 173.435 86.1151 173.435 86.1151 173.435 86.1151 173.214 85.4839 173.028 84.7034 171.692 79.5407 168.905 71.8894 166.379 66.5042 165.971 65.6502 165.636 64.8701 165.636 64.7961 165.636 64.8703 165.636 64.8333 165.674 64.8333ZM197.838 70.9616C198.061 71.0356 198.433 72.2986 199.176 75.084 200.55 80.4699 201.182 86.4867 200.959 92.0951 200.884 93.655 200.81 95.1033 200.734 95.2895L200.623 95.6605 198.693 95.0293C194.718 93.7665 188.255 91.8719 182.722 90.3123 179.565 89.458 177.003 88.678 177.003 88.6038 177.003 88.3807 181.608 83.7753 183.576 82.0298 187.327 78.7237 197.504 70.8499 197.838 70.9616ZM200.401 71.3326C200.512 71.2218 215.777 73.8582 222.723 75.1955 227.887 76.1981 235.388 77.7583 235.834 77.9443 236.056 78.0183 235.277 78.4639 232.788 79.578 222.983 83.9983 215.702 87.9718 208.461 92.8007 206.566 94.0635 204.97 95.1033 204.932 95.1033 204.895 95.1033 204.859 94.0265 204.859 92.7264 204.859 85.6697 203.447 78.5384 200.846 72.5216 200.587 71.9272 200.363 71.3703 200.401 71.3326ZM239.883 79.1327C239.994 79.2441 239.511 82.2528 239.066 84.0353 237.728 89.5695 234.126 97.7783 229.705 105.503 228.926 106.878 228.221 107.992 228.145 108.029 228.071 108.066 227.07 107.509 225.917 106.84 221.609 104.314 216.706 101.937 211.357 99.7087 209.872 99.0776 208.572 98.5572 208.534 98.4836 208.274 98.2604 220.234 90.3493 226.549 86.5609 231.562 83.5155 239.734 78.9839 239.883 79.1327ZM242.705 79.5782C243.039 79.5782 249.799 81.4355 253.328 82.4755 262.056 85.0756 272.084 88.7523 278.621 91.7236L281.331 92.9497 279.438 93.395C263.467 97.0718 249.799 101.307 236.613 106.655 235.536 107.1 234.571 107.472 234.498 107.472 234.422 107.472 234.794 106.618 235.277 105.577 239.251 97.1464 241.814 88.3438 242.445 80.8408 242.482 80.135 242.594 79.5782 242.705 79.5782ZM175.405 95.0293C175.516 94.9177 180.678 96.1436 183.465 96.9229 187.699 98.1119 196.687 101.12 196.687 101.343 196.687 101.38 195.684 102.234 194.495 103.275 189.631 107.323 184.95 111.594 179.341 117.017 177.669 118.614 176.259 119.914 176.186 119.914 176.11 119.914 176.075 119.691 176.11 119.394 176.965 113.154 176.78 105.132 175.59 96.9976 175.478 95.9573 175.367 95.0663 175.405 95.0293ZM283.895 95.141C283.968 95.2148 281.517 99.0776 279.957 101.269 277.731 104.463 274.461 108.698 267.069 117.983 263.171 122.885 258.786 128.42 257.339 130.277 255.852 132.134 254.627 133.693 254.59 133.693 254.552 133.693 254.071 133.025 253.55 132.208 249.39 125.968 244.413 120.508 238.507 115.606 237.394 114.677 236.168 113.674 235.76 113.377 235.351 113.08 235.017 112.783 235.017 112.746 235.017 112.635 241.33 109.923 246.122 107.992 254.516 104.574 265.954 100.489 274.535 97.8518 279.029 96.4406 283.821 95.0663 283.895 95.141ZM286.755 95.8833C286.902 95.8465 287.795 96.2921 288.872 96.9229 297.898 102.086 306.738 108.734 313.72 115.568 315.688 117.5 320.554 122.551 320.479 122.588 320.479 122.588 318.771 122.737 316.766 122.885 301.128 124.074 281.11 127.379 261.871 132.022 260.571 132.319 259.42 132.579 259.344 132.579 259.271 132.579 260.72 131.13 262.539 129.385 273.831 118.503 278.993 111.631 285.083 99.3744 285.938 97.5549 286.681 95.995 286.755 95.8833 286.717 95.8833 286.717 95.8833 286.755 95.8833ZM204.04 104.352C204.561 104.463 209.389 106.729 213.029 108.549 216.372 110.22 221.387 112.894 221.645 113.117 221.683 113.154 219.9 114.083 217.709 115.16 210.727 118.651 204.747 121.956 198.506 125.745 196.723 126.822 195.238 127.714 195.201 127.714 195.053 127.714 195.089 127.565 196.093 125.745 199.436 119.654 202.11 112.374 203.632 105.28 203.781 104.723 203.929 104.352 204.04 104.352ZM199.212 105.243C199.323 105.355 198.061 109.923 197.282 112.411 195.757 117.128 193.195 123.034 190.706 127.491 190.112 128.53 189.221 130.053 188.738 130.907L187.81 132.393 185.731 130.388C183.316 128.048 181.346 126.599 178.822 125.299 177.818 124.78 177.039 124.333 177.039 124.26 177.039 123.962 183.39 118.206 188.255 114.046 191.746 111.037 199.101 105.132 199.212 105.243ZM228.741 117.389 230.56 118.577C234.719 121.289 239.622 124.891 243.373 128.048 245.49 129.793 249.577 133.471 250.394 134.362L250.839 134.845 247.831 135.699C230.82 140.416 217.672 144.613 202.332 150.259 200.623 150.89 199.176 151.41 199.063 151.41 198.842 151.41 198.655 151.595 202.481 148.067 212.287 139.042 220.977 129.088 227.439 119.394L228.741 117.389ZM220.977 119.32C221.051 119.394 215.964 126.562 212.917 130.611 209.278 135.439 202.815 143.536 198.357 148.809 196.501 151.001 194.904 152.821 194.831 152.858 194.718 152.895 194.682 152.338 194.682 151.484 194.682 146.989 193.531 142.198 191.523 138.113 190.67 136.405 190.521 135.996 190.708 135.81 191.412 135.179 202.221 129.013 209.055 125.337 213.661 122.885 220.866 119.246 220.977 119.32ZM174.03 130.834C174.143 130.834 174.995 131.279 175.961 131.799 178.339 133.099 180.456 134.548 182.35 136.108 182.424 136.182 181.459 136.962 180.195 137.89 176.667 140.416 171.32 144.465 168.2 146.953 164.931 149.553 164.82 149.627 165.191 149.07 167.643 145.319 168.868 143.202 170.168 140.491 171.32 138.077 172.471 135.217 173.288 132.728 173.584 131.651 173.956 130.834 174.03 130.834ZM186.548 140.639C186.733 140.602 186.956 140.936 187.959 142.422 190.076 145.578 191.71 149.813 192.119 153.23L192.193 153.973 187.105 155.942C178.005 159.47 169.611 162.961 163.928 165.561 162.331 166.304 159.545 167.641 157.726 168.533 155.905 169.461 154.42 170.167 154.42 170.13 154.42 170.093 155.571 169.238 156.982 168.198 168.088 160.139 177.707 151.299 184.912 142.459 185.693 141.53 186.399 140.676 186.473 140.639L186.548 140.639ZM180.79 142.05C180.939 142.199 176.705 146.99 173.809 149.924 166.64 157.241 159.546 162.961 150.743 168.533 149.629 169.238 148.626 169.869 148.514 169.944 148.254 170.093 148.588 169.721 152.451 165.524 154.903 162.887 156.76 160.658 158.877 157.91 160.288 156.091 160.548 155.83 162.591 154.381 168.051 150.444 180.642 141.902 180.79 142.05Z" fill="url(#fill3)" transform="matrix(1 2.02567e-17 2.02567e-17 1.00073 104.061 14.0779)"/><path d="M79.9921 270.938C79.307 270.938 78.6216 271.003 77.9425 271.003 64.1036 271.741 54.77 277.831 49.3127 289.725 44.6452 300.481 45.1549 314.542 49.3651 325.363 54.261 335.94 62.1721 341.521 75.377 343.628 78.1709 344.086 80.0444 345.618 85.4557 351.936L92.114 359.738 104.19 359.738 96.1601 351.644C91.7214 347.204 88.1313 343.339 88.1313 343.002 88.1313 342.662 89.8293 341.918 91.8846 341.292 98.6603 339.239 104.287 334.005 108.223 325.983 111.409 319.541 111.866 317.549 112.322 309.536 113.517 285.677 100.938 270.761 79.9914 270.931L79.9921 270.938ZM90.5794 333.328C84.7046 336.172 76.1741 336.741 70.6057 334.7 64.8483 332.584 59.2739 326.606 56.7669 319.836 53.9798 312.435 54.3777 298.778 57.5633 292.629 62.6874 282.838 69.4634 278.334 79.3653 278.334 94.0521 278.334 102.407 287.329 103.497 304.235 104.359 318.346 99.6331 328.936 90.5857 333.322L90.5794 333.328ZM299.186 291.317C294.12 291.317 290.243 293.367 287.631 297.407L285.582 300.606 285.582 292.289 276.816 292.289 276.816 342.159 285.576 342.159 285.576 326.221C285.576 311.643 285.758 309.939 287.795 305.951 290.602 300.481 295.432 297.753 300.1 299.059L303.233 299.973 303.233 291.33 299.186 291.33 299.186 291.317ZM247.684 290.86C245.967 290.86 244.145 291.089 242.332 291.487 230.601 294.554 223.989 305.782 224.393 317.335 224.393 327.009 226.273 331.847 230.941 336.919 240.504 344.763 249.152 345.389 260.823 341.181 262.815 340.332 264.982 339.354 264.982 339.354L264.982 331.506 260.823 333.662C251.378 337.773 244.263 337.773 238.564 332.93 234.929 329.228 233.329 324.791 232.592 319.725L267.938 319.725 267.938 313C267.938 299.293 259.688 290.638 247.677 290.86L247.684 290.86ZM233.388 312.727C233.388 312.727 234.694 304.178 239.537 300.821 241.868 299.176 244.544 298.38 247.161 298.38 249.786 298.38 252.403 299.228 254.564 300.88 259.003 304.292 259.747 312.663 259.747 312.663L233.389 312.663 233.389 312.727 233.388 312.727ZM22.0471 303.732C12.5433 297.975 8.32649 293.823 8.84212 288.928 10.3171 275.383 27.054 277.257 36.3227 282.381L36.3886 273.269C36.3886 273.269 31.2642 271.05 23.9205 270.932 12.6541 270.762 5.36939 274.456 1.95595 281.976-3.05764 293.073 1.38163 301.442 17.4266 310.776 26.4342 316.017 30.4157 320.568 30.4157 325.528 30.4157 335.775 18.0593 339.354 5.31129 332.924 2.6877 331.618 0.468068 330.528 0.350675 330.528-0.106557 333.433 0.129133 340.383 0.129133 340.383 0.129133 340.383 4.04585 342.03 9.92003 343.165 24.4888 346.069 37.7467 339.233 38.9998 328.138 40.0901 317.72 36.323 312.257 22.0477 303.726L22.0471 303.732ZM376.772 290.743C375.062 290.743 373.247 290.977 371.354 291.376 359.636 294.444 353.038 305.671 353.486 317.227 353.486 326.886 355.361 331.678 360.027 336.741 369.59 344.594 378.241 345.226 389.971 341.012 391.955 340.163 394.116 339.197 394.116 339.197L394.116 331.338 389.965 333.505C380.499 337.605 373.383 337.605 367.706 332.762 364.048 329.065 362.462 324.68 361.725 319.556L397.012 319.556 397.012 312.832C397.012 299.19 388.761 290.528 376.751 290.757L376.772 290.743ZM362.477 312.609C362.477 312.609 363.796 304.073 368.633 300.651 370.957 299 373.633 298.203 376.248 298.203 378.861 298.203 381.492 299.052 383.653 300.71 388.09 304.124 388.836 312.552 388.836 312.552L362.483 312.552 362.477 312.609ZM201.795 303.844C192.291 298.099 188.087 293.934 188.596 289.038 190.071 275.487 206.809 277.367 216.077 282.492L216.143 273.38C216.143 273.38 211.019 271.16 203.675 271.055 192.408 270.886 185.124 274.58 181.704 282.1 176.697 293.196 181.195 301.565 197.187 310.899 206.182 316.134 210.164 320.625 210.164 325.586 210.164 335.835 197.814 339.471 185.065 332.981 182.454 331.675 180.235 330.6 180.105 330.6 179.647 333.502 179.883 340.455 179.883 340.455 179.883 340.455 183.754 342.042 189.609 343.237 204.191 346.147 217.455 339.321 218.702 328.222 219.786 317.856 216.026 312.392 201.795 303.856L201.795 303.844ZM428.281 291.2C423.215 291.2 419.292 293.255 416.728 297.296L414.675 300.482 414.675 292.179 405.91 292.179 405.91 342.036 414.669 342.036 414.669 326.097C414.669 311.525 414.847 309.816 416.89 305.833 419.696 300.371 424.527 297.636 429.193 298.948L432.326 299.861 432.326 291.2 428.281 291.2ZM132.082 303.555 132.082 271.793 123.244 271.793 123.244 342.147 160.412 342.147 160.412 333.836 132.082 333.836 132.082 303.555ZM336.47 313.458 329.186 332.412 322.181 313.353 315.065 292.231 306.02 292.231C311.881 308.85 318.259 325.757 324.689 342.147 327.476 342.213 330.269 342.147 333.057 342.147L342.894 317.446 352.914 292.237 344.263 292.237C344.263 292.237 340.446 302.251 336.464 313.464L336.47 313.458ZM152.447 252.621C153.87 252.621 155.058 252.165 156.037 251.186 157.003 250.219 157.512 249.084 157.512 247.661 157.512 246.238 157.003 245.05 156.037 244.136 155.058 243.222 153.929 242.765 152.512 242.765 151.077 242.765 149.888 243.222 148.922 244.188 147.943 245.154 147.499 246.342 147.499 247.713 147.499 249.149 147.956 250.337 148.922 251.238 149.836 252.152 151.024 252.609 152.447 252.609L152.447 252.621ZM149.314 244.528C150.162 243.679 151.194 243.287 152.512 243.287 153.753 243.287 154.784 243.679 155.646 244.528 156.495 245.376 156.952 246.407 156.952 247.661 156.952 248.914 156.495 249.998 155.646 250.846 154.785 251.694 153.753 252.099 152.512 252.099 151.253 252.099 150.228 251.708 149.38 250.846 148.531 249.998 148.074 248.914 148.074 247.661 148.074 246.407 148.466 245.377 149.314 244.528ZM151.422 248.118 151.997 248.118C152.402 248.118 152.8 248.509 153.139 249.254L153.825 250.794 154.902 250.794 154.053 249.083C153.707 248.398 153.368 248 152.97 247.888 153.472 247.771 153.87 247.602 154.158 247.262 154.444 246.969 154.549 246.57 154.549 246.119 154.549 245.597 154.386 245.206 154.04 244.919 153.648 244.592 153.022 244.416 152.212 244.416L150.398 244.416 150.398 250.794 151.312 250.794 151.312 248.118 151.422 248.118ZM151.422 245.154 152.219 245.154C152.793 245.154 153.198 245.272 153.42 245.441 153.636 245.611 153.694 245.833 153.694 246.238 153.694 246.975 153.237 247.322 152.389 247.322L151.41 247.322 151.41 245.154 151.422 245.154ZM5.42778 247.55C5.42778 245.33 5.36276 243.679 5.31039 242.707L5.36276 242.707C5.59093 243.855 5.87177 244.71 6.10023 245.278L14.5857 264.234 16.0088 264.234 24.4942 245.109C24.7233 244.587 24.9518 243.803 25.2323 242.713L25.2973 242.713C25.1279 244.606 25.0692 246.251 25.0692 247.563L25.0692 264.293 27.9733 264.293 27.9733 239.423 24.3311 239.423 16.5311 256.721C16.2436 257.406 15.8454 258.432 15.3364 259.789L15.2184 259.789C15.0489 259.117 14.6507 258.092 14.083 256.838L6.45843 239.364 2.58807 239.364 2.58807 264.233 5.38173 264.233 5.38173 247.562 5.42778 247.55ZM34.3381 247.596 36.8452 247.596 36.8452 263.085 34.3381 263.085 34.3381 247.596ZM35.5915 241.917C36.1141 241.917 36.5578 241.74 36.897 241.395 37.2432 241.055 37.4719 240.611 37.4719 240.089 37.4719 239.58 37.3018 239.123 36.9039 238.784 36.5514 238.438 36.1008 238.261 35.5852 238.261 35.0765 238.261 34.6196 238.438 34.2794 238.784 33.9345 239.123 33.7054 239.58 33.7054 240.089 33.7054 240.657 33.8818 241.055 34.2794 241.395 34.6719 241.74 35.0762 241.917 35.5852 241.917L35.5915 241.917ZM54.7176 263.425 54.7176 260.696C53.3465 261.721 51.8713 262.231 50.3439 262.231 48.5168 262.231 47.0344 261.604 45.9507 260.404 44.874 259.216 44.2997 257.563 44.2997 255.508 44.2997 253.354 44.874 251.643 46.0618 250.337 47.2041 249.084 48.6863 248.457 50.5011 248.457 51.9826 248.457 53.4049 248.915 54.7179 249.829L54.7179 246.924C53.5235 246.298 52.1593 246.01 50.6185 246.01 47.7721 246.01 45.5534 246.924 43.8954 248.687 42.2501 250.449 41.4016 252.845 41.4016 255.737 41.4016 258.308 42.1391 260.469 43.6736 262.121 45.2725 263.818 47.3164 264.68 49.8226 264.68 51.7605 264.626 53.3465 264.221 54.7176 263.425ZM61.8909 255.168C61.8909 253.124 62.3478 251.473 63.1964 250.337 63.9932 249.313 64.9588 248.797 66.1011 248.797 67.0674 248.797 67.7524 248.973 68.2548 249.371L68.2548 246.407C67.8635 246.238 67.2955 246.179 66.5581 246.179 65.5331 246.179 64.6199 246.524 63.8168 247.159 62.9682 247.83 62.2895 248.856 61.8912 250.161L61.8262 250.161 61.8262 246.525 58.9868 246.525 58.9868 264.28 61.8325 264.28 61.8325 255.168 61.8909 255.168ZM78.2293 264.632C80.9059 264.632 83.0599 263.771 84.6589 262.061 86.2512 260.363 87.0477 258.079 87.0477 255.232 87.0477 252.328 86.3171 250.109 84.8287 248.456 83.3537 246.806 81.3035 246.009 78.627 246.009 75.9504 246.009 73.7964 246.805 72.1974 248.346 70.4874 250.044 69.5865 252.439 69.5865 255.514 69.5865 258.19 70.3176 260.409 71.8585 262.061 73.4508 263.771 75.5594 264.626 78.2293 264.626L78.2293 264.632ZM74.1823 250.167C75.2659 249.025 76.6894 248.457 78.4512 248.457 80.2795 248.457 81.65 249.025 82.6683 250.167 83.6929 251.362 84.2025 253.066 84.2025 255.344 84.2025 257.51 83.7453 259.214 82.7791 260.357 81.8135 261.552 80.3903 262.184 78.5099 262.184 76.6825 262.184 75.2659 261.551 74.1823 260.357 73.1056 259.156 72.5897 257.51 72.5897 255.344 72.4789 253.19 73.0469 251.428 74.1823 250.167ZM99.5094 263.085C100.593 262.12 101.168 260.932 101.168 259.443 101.168 258.137 100.71 257.054 99.8619 256.199 99.1696 255.514 98.0998 254.893 96.5526 254.267 95.1812 253.693 94.333 253.183 93.8758 252.785 93.4191 252.328 93.1383 251.761 93.1383 250.957 93.1383 250.22 93.4258 249.652 93.9874 249.195 94.5618 248.738 95.2929 248.517 96.2721 248.517 97.806 248.517 99.1178 248.921 100.319 249.776L100.319 246.93C99.1699 246.356 97.9231 246.082 96.4999 246.082 94.6725 246.082 93.132 246.585 91.9957 247.557 90.801 248.524 90.2336 249.777 90.2336 251.251 90.2336 252.557 90.6249 253.641 91.3687 254.437 91.9954 255.116 93.0667 255.808 94.5542 256.427 95.9777 257.054 96.9436 257.622 97.459 258.078 97.968 258.536 98.1964 259.103 98.1964 259.776 98.1964 261.434 97.061 262.29 94.8414 262.29 93.1311 262.29 91.5977 261.728 90.226 260.592L90.226 263.659C91.4665 264.404 92.955 264.743 94.5997 264.743 96.7082 264.633 98.3593 264.117 99.4953 263.092L99.5094 263.085ZM113.061 246.009C110.384 246.009 108.23 246.806 106.631 248.346 104.934 250.044 104.02 252.44 104.02 255.514 104.02 258.19 104.758 260.41 106.291 262.061 107.891 263.771 109.992 264.626 112.669 264.626 115.41 264.626 117.499 263.765 119.098 262.054 120.698 260.357 121.494 258.073 121.494 255.226 121.494 252.322 120.75 250.103 119.274 248.451 117.735 246.799 115.684 246.003 113.073 246.003L113.061 246.009ZM118.583 255.344C118.583 257.511 118.126 259.215 117.16 260.357 116.193 261.552 114.77 262.185 112.89 262.185 111.062 262.185 109.646 261.551 108.562 260.357 107.485 259.156 106.97 257.511 106.97 255.344 106.97 253.059 107.538 251.297 108.68 250.109 109.757 248.973 111.18 248.398 112.949 248.398 114.711 248.398 116.128 248.972 117.152 250.109 118.067 251.362 118.576 253.066 118.576 255.344L118.583 255.344ZM126.272 264.228 129.112 264.228 129.112 248.856 133.27 248.856 133.27 246.466 129.111 246.466 129.111 243.725C129.111 241.232 130.077 239.979 132.075 239.979 132.747 239.979 133.433 240.148 133.942 240.435L133.942 237.871C133.433 237.642 132.747 237.59 131.892 237.59 130.358 237.59 129.105 238.047 128.08 239.013 126.885 240.149 126.252 241.624 126.252 243.622L126.252 246.533 123.249 246.533 123.249 248.922 126.252 248.922 126.252 264.236 126.272 264.228ZM137.936 259.384C137.936 262.857 139.471 264.626 142.604 264.626 143.74 264.626 144.595 264.444 145.28 264.039L145.28 261.598C144.758 261.989 144.138 262.173 143.453 262.173 142.487 262.173 141.808 261.943 141.409 261.427 141.005 260.919 140.776 260.057 140.776 258.869L140.776 248.849 145.28 248.849 145.28 246.46 140.776 246.46 140.776 241.225C139.797 241.565 138.838 241.852 137.93 242.139L137.93 246.46 134.862 246.46 134.862 248.849 137.93 248.849 137.93 259.378 137.936 259.384ZM443.424 292.113C442.458 291.2 441.314 290.742 439.9 290.742 438.464 290.742 437.275 291.2 436.309 292.178 435.342 293.138 434.885 294.332 434.885 295.704 434.885 297.127 435.342 298.315 436.302 299.228 437.269 300.142 438.455 300.6 439.894 300.6 441.308 300.6 442.503 300.142 443.482 299.176 444.442 298.197 444.95 297.068 444.95 295.652 444.899 294.215 444.382 293.027 443.418 292.113L443.424 292.113ZM442.967 298.837C442.118 299.685 441.085 300.077 439.833 300.077 438.593 300.077 437.564 299.685 436.7 298.837 435.851 297.975 435.393 296.898 435.393 295.638 435.393 294.398 435.788 293.367 436.649 292.505 437.497 291.657 438.521 291.265 439.833 291.265 441.073 291.265 442.106 291.657 442.967 292.505 443.816 293.367 444.273 294.398 444.273 295.638 444.273 296.957 443.882 297.975 442.967 298.837ZM440.408 295.932C440.917 295.814 441.323 295.586 441.603 295.305 441.889 295.011 441.995 294.613 441.995 294.157 441.995 293.648 441.832 293.243 441.486 292.962 441.095 292.636 440.462 292.459 439.659 292.459L437.844 292.459 437.844 298.83 438.759 298.83 438.759 296.154 439.325 296.154C439.719 296.154 440.11 296.545 440.462 297.289L441.14 298.823 442.223 298.823 441.374 297.113C441.082 296.369 440.742 296.029 440.396 295.918L440.408 295.932ZM439.782 295.358 438.804 295.358 438.804 293.204 439.605 293.204C440.173 293.204 440.571 293.308 440.8 293.485 441.028 293.654 441.079 293.876 441.079 294.281 441.079 295.019 440.625 295.358 439.776 295.358L439.782 295.358ZM280.974 245.729 281.771 245.729 281.771 239.352 283.878 239.352 283.878 238.555 278.866 238.555 278.866 239.352 280.975 239.352 280.975 245.729 280.974 245.729ZM285.804 240.938C285.804 240.317 285.804 239.808 285.759 239.522 285.811 239.861 285.928 240.09 285.981 240.259L288.429 245.729 288.82 245.729 291.274 240.206C291.34 240.037 291.393 239.815 291.503 239.522 291.451 240.09 291.451 240.545 291.451 240.892L291.451 245.723 292.299 245.723 292.299 238.555 291.274 238.555 289.056 243.503C289.003 243.68 288.826 244.025 288.716 244.417L288.65 244.417C288.605 244.188 288.488 243.96 288.324 243.569L286.105 238.556 284.956 238.556 284.956 245.736 285.759 245.736 285.759 240.945 285.804 240.938Z" fill="#231F1F" transform="matrix(1 0 0 1.00073 44.0248 39)"/></g></svg>