<?xml version="1.0" encoding="UTF-8"?>
<!DOCTYPE svg PUBLIC "-//W3C//DTD SVG 1.1//EN" "http://www.w3.org/Graphics/SVG/1.1/DTD/svg11.dtd">
<!-- Creator: CorelDRAW -->
<svg xmlns="http://www.w3.org/2000/svg" xml:space="preserve" width="1.70666in" height="1.70666in" version="1.1" style="shape-rendering:geometricPrecision; text-rendering:geometricPrecision; image-rendering:optimizeQuality; fill-rule:evenodd; clip-rule:evenodd"
viewBox="0 0 1707 1707"
 xmlns:xlink="http://www.w3.org/1999/xlink">
 <defs>
  <style type="text/css">
   <![CDATA[
    .fil1 {fill:black}
    .fil0 {fill:#00B389}
    .fil2 {fill:#076E6D}
    .fil3 {fill:#F06730}
    .fil4 {fill:#FF2E93}
    .fil5 {fill:#FFB500}
   ]]>
  </style>
 </defs>
 <g id="Layer_x0020_1">
  <metadata id="CorelCorpID_0Corel-Layer"/>
  <g id="_308347752">
   <path class="fil0" d="M324 1707c0,0 0,0 0,0 -8,0 -16,-4 -20,-11l-130 -203c-5,-8 -5,-17 -1,-24 4,-7 12,-12 21,-12l43 0 0 -570 0 -34 0 -603 -43 0c-9,0 -17,-5 -21,-12 -4,-7 -3,-17 1,-24l130 -203c4,-7 12,-11 20,-11 0,0 0,0 0,0 8,0 15,4 19,11l134 203c4,7 5,16 1,24 -4,8 -12,12 -21,12l-43 0 0 599c0,2 0,3 0,4l0 604 43 0c9,0 17,4 21,12 4,8 4,17 -1,24l-133 203c-5,7 -12,11 -20,11z"/>
   <path class="fil1" d="M200 897l1227 0c13,0 23,10 23,23l0 21 137 -88 -137 -87 0 21c0,13 -10,23 -23,23l-1227 0 0 87z"/>
   <path class="fil2" d="M1427 1007c-4,0 -8,-1 -12,-3 -7,-4 -12,-12 -12,-21l0 -40 -1226 0c-13,0 -23,-10 -23,-23l0 -133c0,-13 10,-24 23,-24l1226 0 0 -40c0,-8 5,-16 12,-20 8,-4 17,-4 24,1l203 130c7,4 11,11 11,19 0,8 -4,16 -11,20l-203 130c-4,2 -8,4 -12,4z"/>
   <path class="fil1" d="M521 644l47 3c0,0 0,0 0,0 100,7 217,-13 297,-30 149,-31 353,-105 483,-287 0,-1 0,-1 0,-1l44 -57c7,-9 20,-12 30,-6l34 20 -5 -198 -178 79 33 20c5,3 9,9 10,15 2,7 0,13 -4,19l-40 53c-88,125 -236,212 -427,252 -81,20 -185,31 -272,27 0,0 0,0 0,0l-47 -2 -5 93z"/>
   <path class="fil3" d="M612 695c-16,0 -31,-1 -46,-2l-70 -3c-13,-1 -23,-12 -22,-25l6 -140c1,-13 12,-22 25,-22l70 3c81,4 183,-7 260,-26 0,0 0,0 1,0 124,-26 295,-88 398,-234 0,0 1,0 1,-1l24 -33 -48 -30c-7,-4 -12,-12 -11,-21 1,-9 6,-16 14,-20l250 -110c7,-3 15,-2 22,2 7,4 11,11 11,19l6 273c1,9 -4,17 -11,21 -7,4 -16,4 -24,0l-52 -30 -31 40c-57,81 -133,148 -226,201 -84,48 -180,83 -284,105 -71,16 -170,33 -263,33z"/>
   <path class="fil1" d="M1273 1540l178 78 5 -197 -34 19c-10,6 -23,3 -30,-6l-44 -57c0,0 0,0 0,0 -130,-182 -334,-257 -482,-288 -81,-17 -198,-36 -297,-29 0,0 -1,0 -1,0l-46 2 4 93 47 -2c0,0 0,0 0,0 87,-3 192,7 273,27 190,40 338,127 427,253l39 53c4,5 6,12 5,18 -1,6 -5,12 -11,16l-33 20z"/>
   <path class="fil4" d="M1473 1677c-3,0 -6,-1 -9,-2l-250 -110c-8,-4 -13,-11 -14,-20 -1,-9 4,-17 11,-21l48 -30 -24 -33c0,-1 -1,-1 -1,-1 -103,-146 -274,-208 -398,-234 -1,0 -1,0 -1,0 -77,-19 -179,-30 -260,-26l-70 3c-13,1 -24,-9 -25,-22l-6 -140c-1,-13 9,-24 22,-25l70 -3c104,-7 226,13 309,30 104,22 200,57 284,105 93,53 169,121 226,201l31 40 52 -30c8,-4 17,-4 24,0 7,5 12,13 11,21l-6 273c-1,8 -5,15 -11,19 -4,3 -8,5 -13,5z"/>
   <path class="fil5" d="M77 1547c-13,0 -23,-11 -23,-24l0 -46c0,-13 10,-24 23,-24 13,0 23,11 23,24l0 46c0,13 -10,24 -23,24zm0 -280c-13,0 -23,-11 -23,-24l0 -46c0,-13 10,-24 23,-24 13,0 23,11 23,24l0 46c0,13 -10,24 -23,24zm0 -280c-13,0 -23,-11 -23,-24l0 -46c0,-13 10,-24 23,-24 13,0 23,11 23,24l0 46c0,13 -10,24 -23,24zm0 -280c-13,0 -23,-11 -23,-24l0 -46c0,-13 10,-24 23,-24 13,0 23,11 23,24l0 46c0,13 -10,24 -23,24zm0 -280c-13,0 -23,-11 -23,-24l0 -46c0,-13 10,-24 23,-24 13,0 23,11 23,24l0 46c0,13 -10,24 -23,24zm0 -280c-13,0 -23,-11 -23,-24l0 -46c0,-13 10,-24 23,-24 13,0 23,11 23,24l0 46c0,13 -10,24 -23,24z"/>
  </g>
 </g>
</svg>
